<?xml version="1.0" encoding="UTF-8" standalone="no"?>
<svg
   xmlns:osb="http://www.openswatchbook.org/uri/2009/osb"
   xmlns:dc="http://purl.org/dc/elements/1.1/"
   xmlns:cc="http://creativecommons.org/ns#"
   xmlns:rdf="http://www.w3.org/1999/02/22-rdf-syntax-ns#"
   xmlns:svg="http://www.w3.org/2000/svg"
   xmlns="http://www.w3.org/2000/svg"
   xmlns:sodipodi="http://sodipodi.sourceforge.net/DTD/sodipodi-0.dtd"
   xmlns:inkscape="http://www.inkscape.org/namespaces/inkscape"
   sodipodi:docname="icon.svg"
   inkscape:version="1.0 (4035a4fb49, 2020-05-01)"
   id="svg8"
   version="1.1"
   viewBox="0 0 100 100"
   height="100mm"
   width="100mm">
  <defs
     id="defs2">
    <linearGradient
       osb:paint="solid"
       id="linearGradient895">
      <stop
         id="stop893"
         offset="0"
         style="stop-color:#000000;stop-opacity:1;" />
    </linearGradient>
  </defs>
  <sodipodi:namedview
     inkscape:window-maximized="1"
     inkscape:window-y="-8"
     inkscape:window-x="1912"
     inkscape:window-height="1017"
     inkscape:window-width="1920"
     inkscape:pagecheckerboard="true"
     showgrid="false"
     inkscape:document-rotation="0"
     inkscape:current-layer="layer4"
     inkscape:document-units="mm"
     inkscape:cy="274.48391"
     inkscape:cx="61.336531"
     inkscape:zoom="1.3629885"
     inkscape:pageshadow="2"
     inkscape:pageopacity="0"
     borderopacity="1.0"
     bordercolor="#666666"
     pagecolor="#ffffff"
     id="base" />
  <metadata
     id="metadata5">
    <rdf:RDF>
      <cc:Work
         rdf:about="">
        <dc:format>image/svg+xml</dc:format>
        <dc:type
           rdf:resource="http://purl.org/dc/dcmitype/StillImage" />
        <dc:title></dc:title>
      </cc:Work>
    </rdf:RDF>
  </metadata>
  <g
     style="display:inline"
     inkscape:label="Layer 4"
     id="layer4"
     inkscape:groupmode="layer">
    <path
       sodipodi:nodetypes="ccccc"
       id="path891"
       d="M 9.4684073,23.423314 42.683665,49.875569 43.095054,96.522825 12.282717,66.827506 Z"
       style="fill:#ffc470;fill-opacity:1;stroke:none;stroke-width:0.316859;stroke-linecap:butt;stroke-linejoin:miter;stroke-miterlimit:4;stroke-dasharray:none;stroke-opacity:1" />
    <path
       id="path899"
       d="M 43.340163,97.307732 42.683665,49.875569 90.981836,25.831434 87.007711,71.191322 Z"
       style="fill:#db9748;fill-opacity:1;stroke:none;stroke-width:0.31636px;stroke-linecap:butt;stroke-linejoin:miter;stroke-opacity:1" />
    <path
       id="path901"
       d="M 8.7430701,22.262772 42.683665,49.875569 c 0,0 48.218382,-24.595393 48.225635,-24.530113 C 90.9165,25.410736 53.801036,2.4755655 53.801036,2.4755655 Z"
       style="fill:#ffe694;fill-opacity:1;stroke:none;stroke-width:0.31636px;stroke-linecap:butt;stroke-linejoin:miter;stroke-opacity:1" />
    <path
       d="m 41.127066,61.580303 c 0.17398,0.113902 0.327643,0.254452 0.487648,0.386331 0.09982,0.08433 0.195915,0.172653 0.288613,0.264717 0.07873,0.08309 0.156513,0.168086 0.248434,0.236752 0.05075,0.04241 0.107872,0.07415 0.166578,0.103834 0,0 0.720321,-0.47258 0.720321,-0.47258 v 0 c -0.05537,-0.02923 -0.114524,-0.05102 -0.161003,-0.09478 -0.0937,-0.05748 -0.165372,-0.143647 -0.240282,-0.222888 -0.09447,-0.09565 -0.196238,-0.183408 -0.30003,-0.268818 -0.16409,-0.128022 -0.317831,-0.269106 -0.484668,-0.393876 0,0 -0.725611,0.46131 -0.725611,0.46131 z"
       id="path1038"
       style="opacity:0.989;fill:#ffa92f;fill-opacity:1;stroke:#ffa92f;stroke-width:0.316857;stroke-linejoin:bevel;stroke-miterlimit:4;stroke-dasharray:none;stroke-opacity:1" />
    <path
       d="m 41.826477,73.891256 c 0.03991,0.05448 0.079,0.108662 0.127642,0.155801 0.04791,0.0463 0.104404,0.08184 0.15965,0.118493 0.07335,0.04832 0.143486,0.1012 0.21542,0.151587 0.06593,0.04452 0.131401,0.08972 0.198829,0.131961 0.06076,0.03848 0.119699,0.0798 0.180886,0.117621 0.05729,0.037 0.02892,0.01818 0.08518,0.05647 0,0 0.251712,-0.160758 0.251712,-0.160758 v 0 c -0.05642,-0.03873 -0.02818,-0.01954 -0.08469,-0.0576 -0.05937,-0.04071 -0.119521,-0.0801 -0.180287,-0.118696 -0.06727,-0.04179 -0.132525,-0.08664 -0.198527,-0.130379 -0.07232,-0.04992 -0.142681,-0.102418 -0.215072,-0.152197 -0.05298,-0.03685 -0.108409,-0.07078 -0.155588,-0.115289 -0.04834,-0.04472 -0.08837,-0.09572 -0.123378,-0.151565 0,0 -0.261788,0.154535 -0.261788,0.154535 z"
       id="path1040"
       style="opacity:0.989;fill:#ffa92f;fill-opacity:1;stroke:#ffa92f;stroke-width:0.316857;stroke-linejoin:bevel;stroke-miterlimit:4;stroke-dasharray:none;stroke-opacity:1" />
    <path
       d="m 41.534374,73.956783 c 0.146387,0.09124 0.28855,0.188988 0.431273,0.285791 0.110063,0.07782 0.218095,0.15848 0.332783,0.229478 0.100059,0.05807 0.207946,0.09888 0.316031,0.138991 0,0 0.246742,-0.166562 0.246742,-0.166562 v 0 c -0.107082,-0.03737 -0.212878,-0.07835 -0.311583,-0.134905 -0.116999,-0.0684 -0.228166,-0.145813 -0.33905,-0.223613 -0.141644,-0.09533 -0.283257,-0.190996 -0.42113,-0.291679 0,0 -0.255066,0.162499 -0.255066,0.162499 z"
       id="path1042"
       style="opacity:0.989;fill:#ffa92f;fill-opacity:1;stroke:#ffa92f;stroke-width:0.316857;stroke-linejoin:bevel;stroke-miterlimit:4;stroke-dasharray:none;stroke-opacity:1" />
    <path
       d="m 41.720315,74.055737 c 0.0095,0.01326 0.01759,0.02774 0.02864,0.03978 0.04093,0.04456 0.11316,0.105019 0.158287,0.140714 0.108103,0.08553 0.222313,0.161821 0.337588,0.237144 0.194942,0.127509 0.400756,0.236116 0.607818,0.342166 0,0 0.243357,-0.160133 0.243357,-0.160133 v 0 c -0.209456,-0.102012 -0.417075,-0.20806 -0.612848,-0.335003 -0.114201,-0.07401 -0.22731,-0.1489 -0.332232,-0.23596 -0.04844,-0.0402 -0.103756,-0.08969 -0.143535,-0.1401 -0.0093,-0.01184 -0.01534,-0.02598 -0.023,-0.03896 0,0 -0.264047,0.150344 -0.264047,0.150344 z"
       id="path1044"
       style="opacity:0.989;fill:#ffa92f;fill-opacity:1;stroke:#ffa92f;stroke-width:0.316857;stroke-linejoin:bevel;stroke-miterlimit:4;stroke-dasharray:none;stroke-opacity:1" />
    <path
       d="m 41.186739,73.524088 c 0.07583,0.147524 0.182119,0.265147 0.304281,0.375498 0.130299,0.114571 0.275721,0.209765 0.419481,0.306208 0.06772,0.04594 0.137248,0.08856 0.211316,0.123385 0.04769,0.0199 0.09838,0.03132 0.148425,0.0436 0.0102,0.0023 0.02025,0.0045 0.03033,0.0068 0,0 0.248222,-0.172512 0.248222,-0.172512 v 0 c -0.0099,-0.0019 -0.01996,-0.0041 -0.02993,-0.0061 -0.04868,-0.01172 -0.09688,-0.02514 -0.144739,-0.03958 -0.07543,-0.03129 -0.14619,-0.07152 -0.215249,-0.11499 -0.145167,-0.09278 -0.290468,-0.186719 -0.420619,-0.300236 -0.118183,-0.105381 -0.226891,-0.222035 -0.287158,-0.371082 0,0 -0.264386,0.148949 -0.264386,0.148949 z"
       id="path1050"
       style="opacity:0.989;fill:#ffa92f;fill-opacity:1;stroke:#ffa92f;stroke-width:0.316857;stroke-linejoin:bevel;stroke-miterlimit:4;stroke-dasharray:none;stroke-opacity:1" />
    <path
       d="m 57.00643,43.267429 c 0.850051,0.07586 1.708111,0.11979 2.561757,0.09252 0.971192,-0.03104 1.945886,-0.125298 2.913343,-0.205514 2.088004,-0.258442 4.1896,-0.482346 6.250103,-0.921537 1.074275,-0.228978 1.434328,-0.354989 2.465072,-0.658001 0.93599,-0.300017 1.863114,-0.637634 2.750088,-1.063638 1.02209,-0.490901 1.990422,-1.089462 2.94495,-1.698869 1.315765,-0.909755 2.632002,-1.818717 3.95015,-2.72512 1.355819,-0.978172 2.771579,-1.865797 4.21749,-2.703302 -0.09666,0.06207 -0.396912,0.228156 -0.289979,0.186195 0.235669,-0.09249 0.450634,-0.231083 0.679606,-0.339091 0.251702,-0.118733 0.506171,-0.23165 0.762097,-0.340971 0.724401,-0.309429 1.463455,-0.579041 2.204835,-0.844091 0.784009,-0.26388 0.403187,-0.139657 1.142044,-0.373976 0,0 0.893412,-0.692367 0.893412,-0.692367 v 0 c -0.755314,0.243863 -0.366156,0.114799 -1.167055,0.388471 -1.81936,0.656322 -3.621683,1.362052 -5.258445,2.413015 -1.434556,0.840725 -2.836642,1.734547 -4.190105,2.701362 -1.323547,0.90741 -2.642006,1.822109 -3.966877,2.727461 -0.212249,0.134057 -0.430107,0.259624 -0.636745,0.40218 -0.08555,0.05902 0.364938,-0.199049 0.272748,-0.151067 -0.239723,0.124777 -0.473071,0.261847 -0.715403,0.381468 -0.898691,0.44362 -1.838741,0.799447 -2.789777,1.112425 -1.065709,0.324852 -1.374261,0.440428 -2.486493,0.687275 -2.060751,0.457362 -4.163862,0.709002 -6.25913,0.94158 -1.747807,0.128738 -3.518008,0.269267 -5.259598,-0.01148 0,0 -0.988088,0.695094 -0.988088,0.695094 z"
       id="path1064"
       style="opacity:0.989;fill:#d08329;fill-opacity:1;stroke:#d08329;stroke-width:0.316857;stroke-linejoin:bevel;stroke-miterlimit:4;stroke-dasharray:none;stroke-opacity:1" />
    <path
       d="m 42.861203,74.444481 c 1.754226,-0.421847 3.426779,-1.115079 5.064721,-1.859016 2.743797,-1.342204 5.382191,-2.899741 7.923426,-4.59292 1.50004,-1.073677 3.007182,-2.13412 4.547461,-3.149518 1.022683,-0.645308 2.029519,-1.316743 3.057606,-1.953507 0.254379,-0.15755 1.032067,-0.605639 0.769104,-0.462877 -0.36836,0.199985 -0.72368,0.423108 -1.085521,0.634662 1.751306,-1.004256 3.580856,-1.856706 5.445946,-2.624661 1.550382,-0.642996 3.160417,-1.101179 4.804455,-1.42408 1.412173,-0.255101 2.820177,-0.527494 4.214396,-0.867898 1.632006,-0.417751 3.22448,-0.965899 4.786342,-1.593638 2.148594,-0.910858 4.155263,-2.100916 6.17319,-3.263044 0.771041,-0.485655 1.53553,-0.981799 2.293709,-1.487277 0,0 -2.20106,0.861383 -2.20106,0.861383 v 0 c -0.743611,0.497187 -1.49033,0.990364 -2.254362,1.455816 0.422797,-0.242497 0.855366,-0.468701 1.268394,-0.72749 0.227808,-0.142736 -0.473892,0.254 -0.711972,0.378857 -0.901178,0.472612 -1.812936,0.924636 -2.740541,1.343305 -1.556917,0.637969 -3.139594,1.209576 -4.772275,1.625135 -1.384578,0.343149 -2.785466,0.606855 -4.188579,0.862472 -0.447447,0.08668 -0.946383,0.178183 -1.388466,0.285505 -1.191407,0.289229 -2.348856,0.707765 -3.493511,1.141986 -1.872691,0.751147 -3.703249,1.602445 -5.460125,2.597794 -0.946095,0.543671 -1.895251,1.082048 -2.838282,1.631019 -1.302709,0.758355 -2.540678,1.625142 -3.818722,2.423098 -1.535873,1.019794 -3.038933,2.084457 -4.544088,3.148723 -0.870792,0.577295 -0.730202,0.492584 -1.647599,1.064433 -0.314987,0.196339 -0.711283,0.298347 -0.947852,0.584356 -0.213884,0.258583 1.178624,-0.640991 0.875541,-0.496932 -0.788627,0.374829 -1.50288,0.89578 -2.319217,1.217829 -1.574399,0.720173 -3.183164,1.397224 -4.877621,1.781789 0,0 -1.934498,1.464696 -1.934498,1.464696 z"
       id="path1074"
       style="opacity:0.989;fill:#d08329;fill-opacity:1;stroke:#d08329;stroke-width:0.316857;stroke-linejoin:bevel;stroke-miterlimit:4;stroke-dasharray:none;stroke-opacity:1" />
    <path
       d="m 42.81983,91.623231 c 0.68621,-0.05119 1.368136,-0.148021 2.052797,-0.216763 0.997342,-0.118422 1.99348,-0.253107 2.986181,-0.406432 0.632344,-0.09569 1.266803,-0.177053 1.900956,-0.260027 0.582996,-0.09531 1.166052,-0.18456 1.754836,-0.234435 0.883684,-0.04947 1.76477,-0.136524 2.646324,-0.213821 0.919361,-0.05918 1.835377,-0.152645 2.728719,-0.382243 0,0 1.897264,-1.458274 1.897264,-1.458274 v 0 c -0.888094,0.263466 -1.804879,0.378466 -2.728367,0.437552 -0.867413,0.06855 -1.735187,0.145578 -2.60409,0.186865 -0.593356,0.03172 -1.180885,0.115541 -1.764798,0.225465 -0.64275,0.07551 -1.28364,0.168444 -1.923329,0.265433 -0.989517,0.169201 -1.985031,0.302797 -2.981487,0.42328 -0.665287,0.05717 -1.329243,0.128854 -1.992982,0.200645 0,0 -1.972024,1.432755 -1.972024,1.432755 z"
       id="path1078"
       style="opacity:0.989;fill:#d08329;fill-opacity:1;stroke:#d08329;stroke-width:0.316857;stroke-linejoin:bevel;stroke-miterlimit:4;stroke-dasharray:none;stroke-opacity:1" />
    <path
       d="m 43.004992,82.102954 c 0.909297,-0.03392 1.813486,-0.02117 2.718166,0.07751 1.052115,0.11346 2.030318,0.476692 2.966691,0.951322 0.879438,0.491672 1.695373,1.084171 2.559938,1.59981 0.908693,0.541821 1.902223,0.880631 2.921561,1.140809 1.185686,0.236385 2.396945,0.321697 3.601717,0.400442 1.186217,0.08921 2.375281,0.04536 3.558775,-0.05608 0.410346,-0.03268 0.810705,-0.127278 1.210715,-0.218504 0,0 1.904778,-1.45284 1.904778,-1.45284 v 0 c -0.401329,0.09878 -0.800481,0.211761 -1.212126,0.26072 -1.179748,0.123002 -2.363751,0.180466 -3.54916,0.09453 -1.193105,-0.06724 -2.388854,-0.158905 -3.565665,-0.373486 -1.004769,-0.239498 -1.982932,-0.562625 -2.880453,-1.085265 -0.872567,-0.509734 -1.6896,-1.105852 -2.561941,-1.61622 -0.959473,-0.490338 -1.955684,-0.881459 -3.036087,-1.004767 -0.898296,-0.116329 -1.763453,-0.160924 -2.667698,-0.14869 0,0 -1.969211,1.430715 -1.969211,1.430715 z"
       id="path1080"
       style="opacity:0.989;fill:#d08329;fill-opacity:1;stroke:#d08329;stroke-width:0.316857;stroke-linejoin:bevel;stroke-miterlimit:4;stroke-dasharray:none;stroke-opacity:1" />
    <path
       d="m 89.239012,59.995534 c -2.102422,0.184934 -4.183751,0.551669 -6.260901,0.915983 -1.670812,0.335928 -3.354119,0.629333 -5.010174,1.035629 -0.696214,0.170809 -1.322375,0.362613 -2.00869,0.564061 -1.563949,0.492991 -3.094246,1.088834 -4.613761,1.70378 -1.242945,0.53466 -2.531207,0.946868 -3.798872,1.416291 -1.220492,0.433284 -2.425989,0.906099 -3.619264,1.40913 -1.197404,0.510261 -2.380246,1.052396 -3.553042,1.616656 -1.401989,0.710037 -2.774823,1.487198 -4.06471,2.384185 -0.463867,0.343807 -0.921967,0.693075 -1.357383,1.072599 -0.399314,0.303035 -0.766424,0.648159 -1.113229,1.009376 -0.313696,0.265857 -0.61372,0.54618 -0.884723,0.855221 -0.288746,0.333399 -0.595942,0.646029 -0.840691,1.014119 -0.218833,0.350097 -0.295149,0.746032 -0.330297,1.150356 -0.04988,0.488413 0.139329,0.922858 0.332761,1.357503 0.197539,0.421958 0.468947,0.803598 0.813418,1.116671 0.31771,0.260539 0.68764,0.441601 1.06298,0.602306 0.394833,0.127379 0.767291,0.309948 1.148148,0.472253 0.575648,0.274899 1.19082,0.39093 1.815442,0.489609 0.893532,0.153227 1.794707,0.221987 2.700324,0.205585 0.719647,-0.02034 1.437466,-0.102737 2.14574,-0.23008 0.413445,-0.06014 0.816576,-0.167337 1.223641,-0.25777 0.319094,-0.06856 0.645446,-0.08336 0.970598,-0.0922 0.643369,-0.0394 1.280839,0.06315 1.914721,0.159202 1.200946,0.175325 2.402487,0.345549 3.601796,0.531837 1.091517,0.177486 2.196523,0.227882 3.300004,0.260599 0.591974,0.01265 1.184069,0.01841 1.776141,0.02452 0,0 1.938939,-1.408335 1.938939,-1.408335 v 0 c -0.598299,0.0045 -1.196647,0.0069 -1.794903,-0.004 -1.10159,-0.0225 -2.204663,-0.06642 -3.29624,-0.227281 -1.193517,-0.173354 -2.385292,-0.356846 -3.576307,-0.546412 -0.627134,-0.108332 -1.259571,-0.236676 -1.898413,-0.223945 -0.333423,0.0034 -0.668221,0.0075 -0.998486,0.05858 -0.417073,0.07496 -0.818219,0.213384 -1.238888,0.271626 -0.705523,0.144868 -1.421103,0.245992 -2.141533,0.275306 -0.897145,0.03489 -1.790264,-0.01234 -2.676588,-0.16651 -0.599646,-0.102187 -1.197725,-0.197595 -1.750825,-0.466917 -0.384413,-0.154352 -0.74799,-0.360167 -1.147879,-0.473524 -0.358193,-0.139817 -0.708882,-0.308844 -1.018459,-0.538829 -0.337241,-0.268638 -0.581712,-0.632443 -0.767732,-1.018915 -0.179433,-0.40191 -0.330663,-0.802468 -0.260583,-1.251668 0.04736,-0.372122 0.146093,-0.726319 0.373031,-1.033028 0.264926,-0.346854 0.569112,-0.660694 0.857975,-0.987494 0.286019,-0.291036 0.585118,-0.566678 0.883256,-0.845034 0.358462,-0.345247 0.719538,-0.686574 1.115159,-0.989779 0.438387,-0.369087 0.895655,-0.713999 1.361132,-1.048199 0.191316,-0.133673 0.315323,-0.223532 0.515929,-0.349554 0.102583,-0.06444 0.41699,-0.246742 0.311524,-0.187146 -3.309109,1.87 -1.59093,0.896671 -0.853777,0.510577 1.172321,-0.573928 2.353145,-1.129577 3.557104,-1.634586 1.190259,-0.513258 2.396285,-0.989573 3.618303,-1.422244 1.26952,-0.4758 2.563385,-0.881892 3.810627,-1.416201 1.528612,-0.630711 3.071378,-1.233672 4.641243,-1.753968 0.65803,-0.199094 1.345728,-0.414607 2.01149,-0.585032 1.6686,-0.427143 3.365333,-0.744142 5.053082,-1.082742 2.009116,-0.345008 4.023829,-0.690877 6.061065,-0.817618 0,0 1.960777,-1.42459 1.960777,-1.42459 z"
       id="path1086"
       style="opacity:0.989;fill:#d08329;fill-opacity:1;stroke:#d08329;stroke-width:0.316857;stroke-linejoin:bevel;stroke-miterlimit:4;stroke-dasharray:none;stroke-opacity:1" />
    <path
       d="m 88.63602,65.263689 c -1.297699,0.473503 -2.677917,0.682899 -4.031668,0.934268 -1.903803,0.324442 -3.799081,0.68931 -5.675808,1.145443 -1.40924,0.364564 -2.774963,0.874202 -4.118983,1.428487 -0.853395,0.386274 -1.78067,0.626726 -2.600739,1.087471 -0.81291,0.456723 -1.616158,0.930444 -2.424234,1.395668 -0.526641,0.316409 -0.941405,0.732584 -1.217738,1.278505 -0.162334,0.477524 0.124897,0.870704 0.445632,1.197282 0.337503,0.305633 0.755889,0.489584 1.17155,0.662067 0.573922,0.241623 1.180187,0.396994 1.781837,0.552688 0.645699,0.158409 1.30898,0.234825 1.968839,0.308278 0.717502,0.07449 1.438864,0.09452 2.15962,0.106555 0.630261,0.01032 1.260626,0.0056 1.890949,0.0079 0.438561,0.0031 0.877122,0.0034 1.31569,0.0032 0.365611,3.17e-4 0.73122,0.0013 1.09683,0.0015 0.166495,1.68e-4 0.332989,2.27e-4 0.499487,2.91e-4 0,0 1.968037,-1.429858 1.968037,-1.429858 v 0 c -0.166759,5.8e-5 -0.33352,1.15e-4 -0.500279,2.78e-4 -0.367213,3.18e-4 -0.734424,0.0013 -1.101635,0.0019 -0.442765,3.14e-4 -0.885514,0.0015 -1.328264,0.0057 -0.632155,0.0037 -1.264299,0.0023 -1.896462,3.15e-4 -0.71705,-0.0072 -1.434934,-0.01905 -2.149401,-0.08593 -0.651657,-0.06894 -1.303993,-0.153934 -1.946341,-0.283282 -0.589684,-0.145073 -1.184121,-0.298619 -1.744067,-0.535458 -0.388131,-0.161952 -0.794026,-0.308765 -1.118676,-0.58431 -0.267424,-0.25833 -0.503868,-0.539666 -0.303133,-0.917198 0.302648,-0.491131 0.732029,-0.857825 1.231356,-1.14581 -0.550517,0.314329 -1.104692,0.622338 -1.651553,0.942988 -0.145441,0.08528 0.294908,-0.163929 0.446996,-0.236694 0.70113,-0.335454 1.442828,-0.577203 2.158621,-0.877421 1.351222,-0.568685 2.720688,-1.101703 4.137177,-1.48723 1.872191,-0.474571 3.765814,-0.845254 5.671368,-1.159992 1.323254,-0.239374 2.656802,-0.448283 3.95426,-0.807637 0,0 1.910732,-1.51008 1.910732,-1.51008 z"
       id="path1088"
       style="opacity:0.989;fill:#d08329;fill-opacity:1;stroke:#d08329;stroke-width:0.316857;stroke-linejoin:bevel;stroke-miterlimit:4;stroke-dasharray:none;stroke-opacity:1" />
    <path
       d="m 42.509521,61.952061 c 0.486601,-0.02844 0.968065,-0.113507 1.44535,-0.208921 1.480743,-0.303324 2.537635,-1.054205 3.854878,-1.822535 0.887053,-0.622793 1.628282,-1.419048 2.402682,-2.170303 0.856094,-0.825067 1.729196,-1.632276 2.602261,-2.439294 1.015117,-0.89512 2.014088,-1.805248 2.969976,-2.763605 0.928132,-0.97333 1.838035,-1.963269 2.829024,-2.873525 0.68492,-0.590364 1.411199,-1.132618 2.196618,-1.581593 -0.385378,0.227121 -0.777504,0.44316 -1.156133,0.681364 -0.09036,0.05684 0.191997,-0.09352 0.289789,-0.136326 0.456404,-0.199795 0.927452,-0.357354 1.403062,-0.503655 0.786479,-0.229356 1.589484,-0.396648 2.385485,-0.589507 0.964785,-0.227896 1.937717,-0.419156 2.905202,-0.635513 1.346814,-0.264957 2.685287,-0.56761 4.023492,-0.872492 1.719742,-0.403755 3.419234,-0.887227 5.134659,-1.308442 1.194573,-0.272583 2.385219,-0.561445 3.559126,-0.913244 1.057301,-0.319866 2.084916,-0.728553 3.104099,-1.15227 1.001684,-0.425113 1.991341,-0.877737 2.969378,-1.354584 1.163617,-0.597757 2.292335,-1.26058 3.372307,-1.998023 0.480837,-0.349964 0.96302,-0.698327 1.433683,-1.061971 0,0 -1.575178,0.628596 -1.575178,0.628596 v 0 c -0.467906,0.357857 -0.942492,0.707116 -1.42325,1.047513 -0.181612,0.123697 -0.389951,0.267432 -0.574583,0.385524 -0.103976,0.0665 -0.423025,0.254351 -0.314851,0.194903 2.271124,-1.248143 0.8596,-0.507103 0.378199,-0.232149 -0.980821,0.487221 -1.97463,0.947498 -2.981931,1.377555 -1.010001,0.423553 -2.029232,0.83169 -3.077318,1.152008 -1.190156,0.370841 -2.397347,0.680969 -3.611138,0.964491 -1.70919,0.422085 -3.40553,0.895541 -5.119078,1.300302 -1.326233,0.298664 -2.652987,0.595918 -3.98925,0.846784 -0.961005,0.216991 -1.928812,0.400344 -2.889134,0.619857 -0.796103,0.192391 -1.598111,0.362809 -2.387671,0.579918 -1.235732,0.360103 -2.347655,0.835419 -3.428642,1.583492 -0.763271,0.463433 -1.475051,1.005532 -2.142363,1.598776 -0.973634,0.917565 -1.872853,1.907264 -2.80254,2.868627 -0.963586,0.954042 -1.97285,1.857274 -2.982463,2.762074 -0.881567,0.812524 -1.765527,1.622961 -2.628666,2.455065 -0.766212,0.752074 -1.510124,1.541844 -2.41345,2.133779 0.323487,-0.182508 0.648086,-0.363062 0.970461,-0.547525 0.143559,-0.08215 -0.285565,0.167558 -0.433983,0.240554 -0.477206,0.234714 -0.992575,0.394037 -1.508411,0.516395 -0.460826,0.09729 -0.925736,0.17518 -1.39527,0.214788 0,0 -1.394428,1.013112 -1.394428,1.013112 z"
       id="path1098"
       style="opacity:0.989;fill:#d08329;fill-opacity:1;stroke:#d08329;stroke-width:0.316857;stroke-linejoin:bevel;stroke-miterlimit:4;stroke-dasharray:none;stroke-opacity:1" />
    <path
       d="m 45.257171,73.045702 c -0.202526,0.0049 -0.405089,-0.0044 -0.6075,-0.01053 -0.230907,-0.0093 -0.461839,-0.01196 -0.692295,0.0065 -0.100651,0.0091 -0.200784,0.02297 -0.301611,0.03002 -0.0318,0.0023 -0.06367,0.0029 -0.09554,0.0035 0,0 -0.172836,0.125973 -0.172836,0.125973 v 0 c 0.03271,-6.33e-4 0.06542,-0.0013 0.09806,-0.0037 0.103834,-0.008 0.206713,-0.02341 0.310075,-0.03588 0.231885,-0.02255 0.464508,-0.02284 0.697216,-0.01299 0.19685,0.0064 0.393664,0.01421 0.59037,0.02366 0,0 0.174055,-0.126457 0.174055,-0.126457 z"
       id="path1100"
       style="opacity:0.989;fill:#d08329;fill-opacity:1;stroke:#d08329;stroke-width:0.316857;stroke-linejoin:bevel;stroke-miterlimit:4;stroke-dasharray:none;stroke-opacity:1" />
    <path
       d="m 44.648831,73.46682 c -0.186891,0.02053 -0.375679,0.01319 -0.56317,0.0069 -0.157882,-0.0055 -0.315605,-0.01458 -0.473329,-0.02341 0,0 -0.155391,0.111713 -0.155391,0.111713 v 0 c 0.157557,0.007 0.315112,0.0144 0.472529,0.02424 0.182167,0.0082 0.364515,0.01569 0.54689,0.0095 0,0 0.172471,-0.129084 0.172471,-0.129084 z"
       id="path1102"
       style="opacity:0.989;fill:#d08329;fill-opacity:1;stroke:#d08329;stroke-width:0.316857;stroke-linejoin:bevel;stroke-miterlimit:4;stroke-dasharray:none;stroke-opacity:1" />
    <path
       d="m 45.092591,72.917109 c -0.167708,0.02958 -0.336658,0.0509 -0.505724,0.0709 -0.16028,0.01895 -0.08142,0.0093 -0.236561,0.0288 0,0 -0.157956,0.117884 -0.157956,0.117884 v 0 c 0.156142,-0.02062 0.07687,-0.01064 0.237805,-0.03005 0.163996,-0.01806 0.327796,-0.03741 0.49145,-0.05805 0,0 0.170986,-0.129465 0.170986,-0.129465 z"
       id="path1104"
       style="opacity:0.989;fill:#d08329;fill-opacity:1;stroke:#d08329;stroke-width:0.316857;stroke-linejoin:bevel;stroke-miterlimit:4;stroke-dasharray:none;stroke-opacity:1" />
    <path
       d="m 43.973502,61.012632 c -0.09925,0.01225 -0.198897,0.02105 -0.298468,0.03021 -0.05615,0.0052 -0.112443,0.0088 -0.168813,0.0101 -0.03341,6.32e-4 -0.06684,6.32e-4 -0.100267,6.32e-4 -0.05226,2.21e-4 -0.104492,3.17e-4 -0.156743,1.04e-4 -0.0076,-5e-5 -0.01522,-1.01e-4 -0.02282,-1.52e-4 0,0 -0.121188,0.08804 -0.121188,0.08804 v 0 c 0.0078,-4.4e-5 0.01547,-9.2e-5 0.02322,-1.39e-4 0.05201,-1.7e-4 0.103998,-1.9e-5 0.156007,3.16e-4 0.03338,2.85e-4 0.06678,9.5e-4 0.100147,-7.8e-5 0.05802,-0.0019 0.115875,-0.0066 0.173619,-0.01235 0.09771,-0.0102 0.195399,-0.02053 0.293481,-0.02649 0,0 0.121821,-0.09038 0.121821,-0.09038 z"
       id="path1106"
       style="opacity:0.989;fill:#d08329;fill-opacity:1;stroke:#d08329;stroke-width:0.316857;stroke-linejoin:bevel;stroke-miterlimit:4;stroke-dasharray:none;stroke-opacity:1" />
    <path
       d="m 44.149651,60.929886 c -0.09273,0.0015 -0.185432,0.0025 -0.278141,0.0054 -0.113866,0.0032 -0.227802,0.0067 -0.341723,0.0052 -0.05932,-0.0013 -0.118613,-0.0036 -0.177898,-0.0059 0,0 -0.119319,0.08611 -0.119319,0.08611 v 0 c 0.05992,0.0013 0.119821,0.0032 0.179728,0.005 0.114571,0.0019 0.229108,-0.0037 0.343653,-0.0057 0.09025,-0.0023 0.180534,-0.0037 0.270799,-6.34e-4 0,0 0.122899,-0.08929 0.122899,-0.08929 z"
       id="path1108"
       style="opacity:0.989;fill:#d08329;fill-opacity:1;stroke:#d08329;stroke-width:0.316857;stroke-linejoin:bevel;stroke-miterlimit:4;stroke-dasharray:none;stroke-opacity:1" />
    <path
       d="m 45.166225,61.038555 c 0.171511,-0.09316 0.344789,-0.18297 0.516143,-0.276467 0.264065,-0.14794 0.526512,-0.298955 0.781176,-0.462643 0.132741,-0.08427 0.258729,-0.178313 0.384557,-0.272395 0.01534,-0.01136 0.03059,-0.02284 0.04601,-0.03413 0.03607,-0.02639 0.04123,-0.02882 0.07482,-0.05533 0.02967,-0.02342 0.05827,-0.04795 0.08825,-0.07096 0.06849,-0.05217 0.142739,-0.09613 0.215078,-0.142655 0.03888,-0.02312 0.07762,-0.04642 0.116771,-0.06906 0.01075,-0.0063 0.04322,-0.02503 0.03242,-0.01877 -0.148476,0.08599 -0.128567,0.0746 0.05669,-0.03348 0.03256,-0.02211 0.01683,-0.011 0.04723,-0.03324 0,0 -0.138587,0.0548 -0.138587,0.0548 v 0 c -0.03014,0.02135 -0.01452,0.01064 -0.04697,0.03189 0.03324,-0.01895 0.132716,-0.0763 0.09973,-0.0569 -0.100793,0.05929 -0.203323,0.115697 -0.302665,0.177451 -0.07314,0.04669 -0.147887,0.09131 -0.216499,0.14464 -0.06791,0.05334 -0.13413,0.108772 -0.204861,0.158471 -0.123547,0.09322 -0.247902,0.185492 -0.3784,0.268887 -0.181911,0.117286 -0.36644,0.230154 -0.556333,0.334112 -0.04522,0.02465 -0.09025,0.04964 -0.135664,0.07393 -0.119223,0.0637 -0.241562,0.121334 -0.359475,0.187463 0,0 -0.119426,0.09437 -0.119426,0.09437 z"
       id="path1110"
       style="opacity:0.989;fill:#d08329;fill-opacity:1;stroke:#d08329;stroke-width:0.316857;stroke-linejoin:bevel;stroke-miterlimit:4;stroke-dasharray:none;stroke-opacity:1" />
    <path
       d="m 43.966288,61.091524 c 0.200283,0.0044 0.398962,-0.02892 0.595353,-0.06424 0.306559,-0.0544 0.597143,-0.168114 0.8892,-0.27201 0.214809,-0.07512 0.432048,-0.14352 0.643279,-0.228525 0.109112,-0.04391 0.148855,-0.06343 0.253674,-0.111296 0.03934,-0.02047 0.07932,-0.03968 0.118003,-0.06135 0.0746,-0.04179 0.148954,-0.08409 0.22173,-0.128983 0.03791,-0.02337 0.07401,-0.04964 0.110099,-0.07572 0.10582,-0.07644 0.205408,-0.160447 0.304659,-0.245058 0.113077,-0.09755 0.216173,-0.205672 0.323377,-0.309419 0.07578,-0.07334 0.06856,-0.06578 0.145741,-0.136599 0.138674,-0.126434 0.288255,-0.240014 0.431897,-0.360595 0.111821,-0.09552 0.221226,-0.193872 0.335126,-0.286941 0.03051,-0.02591 0.06178,-0.05089 0.09291,-0.07604 0,0 -0.137528,0.05537 -0.137528,0.05537 v 0 c -0.02964,0.0246 -0.05934,0.04921 -0.08853,0.07435 -0.111499,0.0935 -0.219915,0.190544 -0.330448,0.285158 -0.143141,0.120188 -0.291862,0.233847 -0.429618,0.360351 -0.15743,0.145534 -0.304829,0.301125 -0.46492,0.443749 -0.09884,0.08417 -0.197967,0.167791 -0.303799,0.243202 -0.03655,0.02604 -0.07465,0.0498 -0.111546,0.07536 -6.32e-4,3.17e-4 0.0032,-1.9e-4 0.0025,2.02e-4 -0.03899,0.02101 -0.07841,0.04124 -0.117595,0.06187 -0.105568,0.04909 -0.146754,0.06966 -0.256597,0.114631 -0.212118,0.08684 -0.430596,0.156456 -0.646888,0.231826 -0.289721,0.10132 -0.577498,0.213243 -0.880787,0.268096 -0.189363,0.03423 -0.382153,0.06918 -0.575409,0.0547 0,0 -0.12387,0.08792 -0.12387,0.08792 z"
       id="path1112"
       style="opacity:0.989;fill:#d08329;fill-opacity:1;stroke:#d08329;stroke-width:0.316857;stroke-linejoin:bevel;stroke-miterlimit:4;stroke-dasharray:none;stroke-opacity:1" />
    <path
       d="m 43.772943,61.016024 c 0.229496,-0.04076 0.458978,-0.0814 0.687606,-0.126841 0.340108,-0.06783 0.674628,-0.164577 1.001334,-0.28071 0.07303,-0.02597 0.145333,-0.05394 0.217997,-0.08091 0.254633,-0.09726 0.508481,-0.199737 0.747346,-0.332041 0.203581,-0.112766 0.223082,-0.12719 0.389142,-0.230979 0.108465,-0.07106 0.216223,-0.143883 0.318435,-0.223816 0.07991,-0.06249 0.154783,-0.130972 0.230077,-0.198816 0.103779,-0.09385 0.211357,-0.183318 0.319085,-0.272548 0.04562,-0.03796 0.09275,-0.07384 0.141001,-0.108355 0,0 -0.138647,0.05486 -0.138647,0.05486 v 0 c -0.04681,0.03426 -0.09221,0.07028 -0.136558,0.107674 -0.105315,0.08857 -0.210348,0.177494 -0.311998,0.270268 -0.04749,0.04302 -0.09549,0.08722 -0.144428,0.128581 -0.124324,0.105073 -0.25777,0.198848 -0.394094,0.287581 -0.0589,0.03681 -0.116149,0.07651 -0.177275,0.109507 -0.24262,0.130944 -0.494323,0.243372 -0.753141,0.338525 -0.07198,0.02658 -0.143643,0.05401 -0.215942,0.07969 -0.323993,0.115097 -0.655102,0.212288 -0.993124,0.276435 -0.22132,0.04279 -0.443373,0.08223 -0.666929,0.111558 0,0 -0.119887,0.09035 -0.119887,0.09035 z"
       id="path1114"
       style="opacity:0.989;fill:#d08329;fill-opacity:1;stroke:#d08329;stroke-width:0.316857;stroke-linejoin:bevel;stroke-miterlimit:4;stroke-dasharray:none;stroke-opacity:1" />
    <path
       d="m 47.768446,59.205079 c 0.03012,-0.02547 0.06124,-0.04978 0.09391,-0.0719 0.04485,-0.03038 0.08609,-0.05247 -0.05386,0.0291 0.05795,-0.03132 0.120557,-0.05218 0.182507,-0.07388 0,0 0.115049,-0.08971 0.115049,-0.08971 v 0 c -0.062,0.02209 -0.124916,0.04239 -0.18403,0.07167 -0.101924,0.05907 -0.205432,0.113807 -0.294334,0.191744 0,0 0.140751,-0.05705 0.140751,-0.05705 z"
       id="path1116"
       style="opacity:0.989;fill:#d08329;fill-opacity:1;stroke:#d08329;stroke-width:0.316857;stroke-linejoin:bevel;stroke-miterlimit:4;stroke-dasharray:none;stroke-opacity:1" />
    <path
       d="m 45.075483,80.758127 c -0.193942,0.01342 -0.388483,0.0143 -0.582799,0.01578 -0.199114,0.0023 -0.398238,-0.0029 -0.597339,-0.0019 -0.05372,3.15e-4 -0.107345,0.0025 -0.16074,0.0084 -0.03902,0.0042 -0.07821,0.0066 -0.117441,0.0079 0,0 -0.121969,0.08924 -0.121969,0.08924 v 0 c 0.0398,-0.0013 0.07956,-0.0037 0.119186,-0.0079 0.05488,-0.0052 0.10974,-0.01076 0.164881,-0.01304 0.203399,-0.0081 0.407169,-0.0041 0.610659,-0.0081 0.187443,-9.49e-4 0.374897,9.51e-4 0.562312,-9.49e-4 0,0 0.12325,-0.08955 0.12325,-0.08955 z"
       id="path1118"
       style="opacity:0.989;fill:#d08329;fill-opacity:1;stroke:#d08329;stroke-width:0.316857;stroke-linejoin:bevel;stroke-miterlimit:4;stroke-dasharray:none;stroke-opacity:1" />
    <path
       d="m 45.167244,80.708173 c -0.261369,0.02025 -0.523914,0.02363 -0.785951,0.02888 -0.242658,0.0045 -0.485376,0.0057 -0.728065,0.0038 -0.06597,-0.0015 -0.131875,-0.0023 -0.197703,0.0029 0,0 -0.121318,0.08986 -0.121318,0.08986 v 0 c 0.06836,-0.0075 0.136848,-0.01064 0.205637,-0.01021 0.246947,-0.0044 0.493908,-0.0082 0.740853,-0.01294 0.255082,-0.0054 0.510188,-0.01064 0.765301,-0.01297 0,0 0.121246,-0.08933 0.121246,-0.08933 z"
       id="path1120"
       style="opacity:0.989;fill:#d08329;fill-opacity:1;stroke:#d08329;stroke-width:0.316857;stroke-linejoin:bevel;stroke-miterlimit:4;stroke-dasharray:none;stroke-opacity:1" />
    <path
       d="m 45.278012,80.665933 c -0.126535,0.0049 -0.252938,0.0029 -0.379367,-0.0034 -0.265567,-0.0191 -0.530545,-0.04516 -0.796331,-0.06111 -0.148828,-0.0048 -0.298079,-0.005 -0.446612,0.0068 -0.04805,0.0038 -0.09043,0.0091 -0.137993,0.01458 0,0 -0.114237,0.0852 -0.114237,0.0852 v 0 c 0.04684,-0.0064 0.09422,-0.01317 0.141229,-0.01788 0.150113,-0.01506 0.301251,-0.01801 0.451972,-0.01292 0.264338,0.01408 0.527667,0.04034 0.79121,0.06474 0.12234,0.0085 0.244617,0.01202 0.367226,0.01319 0,0 0.1229,-0.08929 0.1229,-0.08929 z"
       id="path1126"
       style="opacity:0.989;fill:#d08329;fill-opacity:1;stroke:#d08329;stroke-width:0.316857;stroke-linejoin:bevel;stroke-miterlimit:4;stroke-dasharray:none;stroke-opacity:1" />
    <path
       d="m 44.583843,81.067104 c -0.284695,0.01603 -0.570315,0.009 -0.855296,0.0049 -0.05244,-9.49e-4 -0.104887,-0.0023 -0.157336,-0.0032 0,0 -0.101803,0.07377 -0.101803,0.07377 v 0 c 0.0536,2.56e-4 0.10718,6.32e-4 0.160764,6.32e-4 0.277451,0.0029 0.554894,0.0081 0.832285,0.01332 0,0 0.121381,-0.08952 0.121381,-0.08952 z"
       id="path1128"
       style="opacity:0.989;fill:#d08329;fill-opacity:1;stroke:#d08329;stroke-width:0.316857;stroke-linejoin:bevel;stroke-miterlimit:4;stroke-dasharray:none;stroke-opacity:1" />
    <path
       d="m 44.176555,81.47852 c -0.143384,0.0273 -0.291021,0.01832 -0.436025,0.01361 0,0 -0.107828,0.07779 -0.107828,0.07779 v 0 c 0.141072,0.0048 0.282935,0.01465 0.423782,9.48e-4 0,0 0.120067,-0.09221 0.120067,-0.09221 z"
       id="path1130"
       style="opacity:0.989;fill:#d08329;fill-opacity:1;stroke:#d08329;stroke-width:0.316857;stroke-linejoin:bevel;stroke-miterlimit:4;stroke-dasharray:none;stroke-opacity:1" />
    <path
       d="m 44.364602,81.321277 c -0.03595,-0.0046 -0.07199,-0.0097 -0.108124,-0.01263 -0.211088,-0.01721 -0.423084,-0.02214 -0.634698,-0.02857 0,0 -0.102363,0.07399 -0.102363,0.07399 v 0 c 0.240687,0.0044 0.483868,0.0064 0.720762,0.05391 0,0 0.124427,-0.0867 0.124427,-0.0867 z"
       id="path1132"
       style="opacity:0.989;fill:#d08329;fill-opacity:1;stroke:#d08329;stroke-width:0.316857;stroke-linejoin:bevel;stroke-miterlimit:4;stroke-dasharray:none;stroke-opacity:1" />
    <path
       d="m 45.266961,90.238746 c -0.323546,0.03631 -0.64823,0.06147 -0.972853,0.08585 -0.281893,0.02005 -0.564104,0.03618 -0.846591,0.04471 -0.01724,3.8e-5 -0.03446,7.7e-5 -0.05169,1.13e-4 0,0 -0.11676,0.0851 -0.11676,0.0851 v 0 c 0.0181,-6.32e-4 0.0362,-9.48e-4 0.05431,-0.0015 0.290527,-0.01818 0.580716,-0.04142 0.871055,-0.06228 0.313881,-0.02309 0.627868,-0.04463 0.942097,-0.06235 0,0 0.120432,-0.08968 0.120432,-0.08968 z"
       id="path1134"
       style="opacity:0.989;fill:#d08329;fill-opacity:1;stroke:#d08329;stroke-width:0.316857;stroke-linejoin:bevel;stroke-miterlimit:4;stroke-dasharray:none;stroke-opacity:1" />
    <path
       d="m 45.522884,90.216028 c -0.252668,0.0065 -0.505244,0.01611 -0.757829,0.02514 -0.389532,0.01872 -0.779232,0.03373 -1.16886,0.05023 0,0 -0.09826,0.0722 -0.09826,0.0722 v 0 c 0.390623,-0.02524 0.78161,-0.04406 1.17296,-0.0536 0.242991,-0.0056 0.486259,-0.01292 0.729274,-0.0048 0,0 0.122723,-0.08916 0.122723,-0.08916 z"
       id="path1136"
       style="opacity:0.989;fill:#d08329;fill-opacity:1;stroke:#d08329;stroke-width:0.316857;stroke-linejoin:bevel;stroke-miterlimit:4;stroke-dasharray:none;stroke-opacity:1" />
    <path
       d="m 45.493424,90.236481 c -0.15682,0.0063 -0.313813,0.0023 -0.470675,6.34e-4 -0.479741,-0.0049 -0.0093,0.0013 -0.508558,-0.0057 -0.31699,-0.0038 -0.633892,-0.01319 -0.950873,-0.01724 0,0 -0.106391,0.07732 -0.106391,0.07732 v 0 c 0.323314,-0.005 0.646708,-0.0013 0.970012,0.0031 0.314649,0.0066 0.629229,0.01611 0.94359,0.03132 0,0 0.122899,-0.08929 0.122899,-0.08929 z"
       id="path1138"
       style="opacity:0.989;fill:#d08329;fill-opacity:1;stroke:#d08329;stroke-width:0.316857;stroke-linejoin:bevel;stroke-miterlimit:4;stroke-dasharray:none;stroke-opacity:1" />
    <path
       d="m 45.444764,90.21584 c -0.262056,6.32e-4 -0.524098,0.0041 -0.786144,0.0068 -0.211081,0.0023 -0.422172,0.0019 -0.633262,0.0013 0,0 -0.09678,0.07035 -0.09678,0.07035 v 0 c 0.211971,-0.0023 0.423945,-0.0038 0.635933,-0.0032 0.252269,9.49e-4 0.505198,-0.0031 0.756995,0.01433 0,0 0.123252,-0.08955 0.123252,-0.08955 z"
       id="path1140"
       style="opacity:0.989;fill:#d08329;fill-opacity:1;stroke:#d08329;stroke-width:0.316857;stroke-linejoin:bevel;stroke-miterlimit:4;stroke-dasharray:none;stroke-opacity:1" />
    <path
       d="m 45.30984,90.195895 c -0.281027,-9.49e-4 -0.562084,-0.0048 -0.843079,-0.0095 -0.318562,-0.0066 -0.162394,-0.0025 -0.468503,-0.01202 0,0 -0.09228,0.06665 -0.09228,0.06665 v 0 c 0.307285,0.0071 0.151493,0.0029 0.467369,0.01292 0.271656,0.0082 0.543542,0.01326 0.814823,0.03041 0,0 0.121671,-0.08839 0.121671,-0.08839 z"
       id="path1142"
       style="opacity:0.989;fill:#d08329;fill-opacity:1;stroke:#d08329;stroke-width:0.316857;stroke-linejoin:bevel;stroke-miterlimit:4;stroke-dasharray:none;stroke-opacity:1" />
    <path
       d="m 44.43161,90.236738 c -0.126974,0.0049 -0.253591,-0.0089 -0.379236,-0.0256 -0.08707,-0.01253 -0.172746,-0.03268 -0.258575,-0.0516 0,0 -0.120549,0.08373 -0.120549,0.08373 v 0 c 0.08712,0.01828 0.173695,0.04005 0.262253,0.05057 0.124245,0.01445 0.248865,0.02708 0.37391,0.03164 0,0 0.122197,-0.08878 0.122197,-0.08878 z"
       id="path1144"
       style="opacity:0.989;fill:#d08329;fill-opacity:1;stroke:#d08329;stroke-width:0.316857;stroke-linejoin:bevel;stroke-miterlimit:4;stroke-dasharray:none;stroke-opacity:1" />
    <path
       d="m 44.34023,90.534873 c -0.12412,0.0098 -0.248764,0.0099 -0.373116,0.01519 -0.119043,0.005 -0.140166,0.007 -0.254957,0.01465 0,0 -0.106654,0.07868 -0.106654,0.07868 v 0 c 0.113292,-0.0091 0.139684,-0.01235 0.256467,-0.01648 0.118865,-0.0042 0.237736,-0.0019 0.356637,-0.0023 0,0 0.121622,-0.08992 0.121622,-0.08992 z"
       id="path1148"
       style="opacity:0.989;fill:#d08329;fill-opacity:1;stroke:#d08329;stroke-width:0.316857;stroke-linejoin:bevel;stroke-miterlimit:4;stroke-dasharray:none;stroke-opacity:1" />
  </g>
  <g
     style="display:inline;opacity:1"
     inkscape:label="Layer 5"
     id="layer5"
     inkscape:groupmode="layer">
    <path
       d="m 66.791138,10.684827 c -0.604571,0.190005 -1.204672,0.395356 -1.795535,0.624597 -0.805721,0.357807 -1.56821,0.829329 -2.315459,1.285041 -0.116115,0.07081 -0.215332,0.166192 -0.321837,0.250759 -0.338221,0.268545 -0.362657,0.293491 -0.694139,0.573394 -0.575998,0.503898 -1.152069,1.019031 -1.616667,1.630285 -0.217653,0.265852 -0.343424,0.579432 -0.428099,0.90829 -0.07945,0.307411 -0.07538,0.619135 -0.04371,0.932023 0.04924,0.353108 0.240667,0.599894 0.520043,0.804567 0.475544,0.313952 1.027501,0.470304 1.577788,0.593399 0.65517,0.124338 1.327101,0.119577 1.991308,0.106829 0.638487,-0.0078 1.266263,-0.09688 1.875782,-0.284358 0.600955,-0.187226 1.165677,-0.466568 1.723868,-0.753484 0.6951,-0.386392 1.383039,-0.786408 2.067829,-1.190357 0.216791,-0.12788 0.42271,-0.281999 0.6355,-0.41704 0.368949,-0.231929 0.709208,-0.504237 1.059867,-0.761935 0.232022,-0.161778 0.471011,-0.311341 0.713934,-0.457137 0.04653,-0.0305 0.09306,-0.06098 0.139592,-0.09149 0.04655,-0.03324 0.09207,-0.06795 0.139629,-0.09973 0.04555,-0.03044 0.187012,-0.114212 0.139565,-0.08682 -0.44437,0.256582 -0.887512,0.515285 -1.330397,0.774419 -0.04256,0.02491 0.08684,-0.0468 0.129387,-0.0717 0.526725,-0.308285 1.052276,-0.618566 1.578412,-0.927849 0.03498,-0.02287 0.06997,-0.04575 0.104964,-0.06862 0,0 -1.600664,0.626084 -1.600664,0.626084 v 0 c -0.03419,0.02313 -0.06839,0.04626 -0.102594,0.0694 3.04789,-1.745943 0.170111,-0.131412 -0.795536,0.493816 -0.240956,0.14862 -0.478011,0.301991 -0.705917,0.470256 -0.344918,0.254946 -0.680932,0.522706 -1.048574,0.745361 -0.147765,0.09513 -0.294425,0.191976 -0.442326,0.286896 -0.06786,0.04355 -0.27499,0.168496 -0.204764,0.128851 2.419092,-1.36566 1.358237,-0.792864 0.838719,-0.47991 -0.551296,0.295789 -1.113191,0.579254 -1.70784,0.777683 -0.16803,0.05687 -0.401857,0.140876 -0.575881,0.180617 -0.418453,0.09556 -0.85524,0.11817 -1.28139,0.149555 -0.651612,0.02417 -1.308487,0.01266 -1.95433,-0.08486 -0.531651,-0.10301 -1.068768,-0.239651 -1.524255,-0.545129 -0.246801,-0.168335 -0.41104,-0.371264 -0.44322,-0.678849 -0.02497,-0.29562 -0.0093,-0.58983 0.07564,-0.876107 0.09924,-0.305137 0.22426,-0.593037 0.435112,-0.84084 0.467407,-0.589893 1.02746,-1.096866 1.598981,-1.583937 0.116293,-0.09635 0.231215,-0.194385 0.348883,-0.289058 0.11725,-0.09433 0.234992,-0.188149 0.355782,-0.277907 0.111176,-0.08262 0.462918,-0.302725 0.339901,-0.239055 -0.39105,0.202398 -0.76515,0.436001 -1.146323,0.656437 -0.09372,0.05419 0.187966,-0.107542 0.283898,-0.157691 0.09437,-0.04934 0.191228,-0.09378 0.286841,-0.140663 0.574591,-0.232487 1.160607,-0.4318 1.751473,-0.618928 0,0 1.366764,-1.045106 1.366764,-1.045106 z"
       id="path946"
       style="opacity:0.989;fill:#fbbf00;fill-opacity:1;stroke:#fbbf00;stroke-width:0.555997;stroke-linejoin:bevel;stroke-miterlimit:4;stroke-dasharray:none;stroke-opacity:1" />
    <path
       d="m 64.375197,8.0555594 c -1.560142,0.5879415 -3.112693,1.1923337 -4.635369,1.8718149 -2.276735,1.0994927 -4.436608,2.4322507 -6.489092,3.9055677 -0.824805,0.600452 -1.598314,1.266043 -2.375664,1.925408 -0.782696,0.705179 -1.566031,1.409322 -2.301726,2.163827 -0.447837,0.482292 -0.882839,0.982777 -1.229754,1.544491 -0.18757,0.303713 -0.263254,0.476403 -0.419725,0.794394 -0.307638,0.721629 -0.427738,1.444177 -0.35664,2.222204 0.06235,0.482937 0.276488,0.880527 0.606078,1.228653 0.38394,0.374843 0.86622,0.628564 1.34384,0.862906 0.431405,0.180829 0.860124,0.388345 1.313765,0.510207 0.381089,0.102363 0.64834,0.132191 1.041981,0.193375 1.473275,0.156665 2.954956,0.192913 4.434024,0.124035 1.060522,-0.08049 2.128484,-0.196554 3.162809,-0.455498 0.663063,-0.166 1.010474,-0.303706 1.657388,-0.529208 1.452466,-0.525919 2.858055,-1.168661 4.236313,-1.863673 1.183391,-0.633997 2.379461,-1.244199 3.585352,-1.834184 0.977396,-0.47043 1.954523,-0.941717 2.925206,-1.42588 1.189714,-0.616204 2.301291,-1.365742 3.453856,-2.044958 -0.383787,0.226138 -0.774413,0.441048 -1.151356,0.678416 -0.109353,0.06886 0.231162,-0.115612 0.347374,-0.172136 0.129306,-0.06289 0.25894,-0.125118 0.389158,-0.186096 0.363497,-0.170213 0.730299,-0.32736 1.103241,-0.47541 0.09369,-0.03693 0.187392,-0.07384 0.281089,-0.110769 0,0 1.325715,-1.042638 1.325715,-1.042638 v 0 c -0.09584,0.03906 -0.191686,0.07809 -0.287528,0.11713 -1.246954,0.486994 -2.442635,1.084045 -3.57856,1.796944 -0.29926,0.180166 -0.595431,0.364624 -0.891335,0.550248 -0.11603,0.07279 -0.469014,0.282801 -0.348329,0.218014 0.311333,-0.167129 1.718442,-0.980745 0.650769,-0.364466 -0.974253,0.49469 -1.959306,0.968099 -2.943326,1.442956 -1.213069,0.59041 -2.41455,1.205374 -3.602571,1.844677 -1.380668,0.705556 -2.789811,1.35817 -4.244765,1.896983 -0.62982,0.224764 -0.986147,0.368158 -1.631247,0.535206 -1.029145,0.266492 -2.092803,0.394859 -3.15015,0.477958 -1.460048,0.0768 -2.925199,0.03978 -4.379069,-0.122805 -0.385701,-0.06017 -0.630009,-0.08635 -1.001404,-0.18746 -0.445038,-0.121153 -0.866619,-0.322836 -1.291014,-0.498935 -0.460336,-0.22338 -0.922067,-0.468014 -1.2968,-0.822057 -0.307087,-0.315601 -0.506949,-0.677069 -0.563801,-1.12108 -0.06467,-0.736829 0.0642,-1.45414 0.375433,-2.128249 0.169244,-0.33238 0.221681,-0.455276 0.424658,-0.772194 0.351008,-0.548056 0.783318,-1.038258 1.227367,-1.511619 0.745258,-0.755214 1.535635,-1.46298 2.334179,-2.161236 0.755405,-0.648252 1.51115,-1.297754 2.314772,-1.886477 0.509963,-0.367879 0.828735,-0.60492 1.362347,-0.958343 0.281213,-0.186259 0.584054,-0.340997 0.852246,-0.54556 0.111641,-0.08516 -0.49878,0.257176 -0.378722,0.184377 0.735868,-0.446198 1.18628,-0.652741 1.949854,-1.034813 1.475888,-0.659601 2.978212,-1.2548213 4.505506,-1.7856061 0,0 1.343627,-1.0484503 1.343627,-1.0484503 z"
       id="path948"
       style="opacity:0.989;fill:#fbbf00;fill-opacity:1;stroke:#fbbf00;stroke-width:0.555997;stroke-linejoin:bevel;stroke-miterlimit:4;stroke-dasharray:none;stroke-opacity:1" />
    <path
       d="m 64.909695,9.1933514 c -0.824891,0.3391063 -1.629751,0.7235429 -2.428548,1.1194866 -0.175815,0.09947 -0.353967,0.194903 -0.52744,0.298393 -0.628603,0.375016 -1.260395,0.745126 -1.878615,1.137023 -0.17355,0.110016 -0.330543,0.244192 -0.494867,0.367556 -0.464041,0.348375 -0.918654,0.708294 -1.374785,1.066873 -0.775549,0.608831 -1.492486,1.286163 -2.202275,1.969035 -0.600586,0.563771 -1.078565,1.228685 -1.513587,1.923294 -0.303696,0.491275 -0.554112,1.016105 -0.728192,1.566918 -0.119688,0.381605 -0.100848,0.727061 0.03706,1.096313 0.147924,0.321567 0.476319,0.441634 0.77045,0.597692 0.549672,0.293401 1.118766,0.547382 1.698058,0.775944 0.603602,0.242531 1.253786,0.316487 1.895912,0.382056 0.517952,0.04526 1.038246,0.05197 1.557851,0.05271 0.646217,-0.01021 1.292787,0.0035 1.93875,-0.01778 0.714317,-0.02228 1.387968,-0.215552 2.049016,-0.47154 0.592929,-0.237646 1.157759,-0.536039 1.728338,-0.821143 0.61783,-0.272901 1.244473,-0.524855 1.8653,-0.791326 0.654224,-0.276145 1.29916,-0.565401 1.926831,-0.897806 0.921837,-0.515614 0.471552,-0.261252 2.156896,-1.243619 0.118505,-0.06907 0.472313,-0.279194 0.353321,-0.210959 -0.36228,0.207743 -0.722938,0.418311 -1.083216,0.629506 -0.102934,0.06034 0.207391,-0.118076 0.311178,-0.176942 0.09525,-0.05403 0.190621,-0.107839 0.285931,-0.161754 0.685569,-0.392023 1.381597,-0.764732 2.074408,-1.143653 0.106281,-0.05996 0.212561,-0.119918 0.318843,-0.179878 0,0 1.30253,-1.053787 1.30253,-1.053787 v 0 c -0.107565,0.06221 -0.215122,0.124423 -0.322685,0.186635 -0.687796,0.378951 -1.382066,0.745171 -2.064895,1.133142 -0.795538,0.45081 -1.587623,0.908489 -2.37866,1.366798 -0.117883,0.0683 -0.469847,0.275966 -0.35106,0.209265 0.354763,-0.199206 0.70631,-0.404094 1.059072,-0.606826 0.119818,-0.06886 -0.240156,0.136803 -0.360234,0.205204 -0.621877,0.335715 -1.259137,0.631054 -1.910904,0.903863 -0.62011,0.26319 -1.23856,0.528037 -1.863499,0.77936 -0.58049,0.274295 -1.137771,0.597437 -1.733292,0.840891 -0.658843,0.269117 -1.288558,0.471279 -2.005824,0.509227 -0.640295,0.03526 -1.281905,0.01365 -1.922934,0.0158 -0.519341,-0.0011 -1.039229,0.0014 -1.557668,-0.03424 -0.633645,-0.05103 -1.270953,-0.117597 -1.870412,-0.343221 -0.575182,-0.214662 -1.135962,-0.467535 -1.67417,-0.763541 -0.131919,-0.07616 -0.46481,-0.231635 -0.572787,-0.33169 -0.05061,-0.04689 -0.0851,-0.114176 -0.119706,-0.172214 -0.126729,-0.335897 -0.113162,-0.642904 -6.35e-4,-0.98532 0.181687,-0.532648 0.424718,-1.042643 0.724236,-1.519565 0.43361,-0.681977 0.920792,-1.325558 1.513554,-1.87941 0.705997,-0.678401 1.424651,-1.344898 2.196229,-1.949069 0.451246,-0.356685 0.901088,-0.714781 1.364004,-1.056371 0.166675,-0.122992 0.701912,-0.423932 0.503611,-0.364068 -0.331382,0.100047 -0.602079,0.343446 -0.916303,0.488655 -0.182835,0.08449 0.347356,-0.203998 0.521036,-0.305995 0.772371,-0.386564 1.551944,-0.765383 2.359287,-1.073747 0,0 1.345367,-1.0661808 1.345367,-1.0661808 z"
       id="path950"
       style="opacity:0.989;fill:#fbbf00;fill-opacity:1;stroke:#fbbf00;stroke-width:0.555997;stroke-linejoin:bevel;stroke-miterlimit:4;stroke-dasharray:none;stroke-opacity:1" />
    <path
       d="m 60.744071,6.1722034 c -1.279372,0.6526976 -2.51884,1.372628 -3.760084,2.094853 -0.715379,0.4537534 -1.400853,0.9520646 -2.094645,1.4376968 -0.07982,0.051862 -0.158849,0.1049748 -0.239476,0.1555583 -0.172635,0.1083328 -0.732094,0.4320685 -0.466698,0.2778535 0.398573,-0.2316003 0.798006,-0.4617351 1.194939,-0.6961354 0.07679,-0.045355 -0.157087,0.084564 -0.234447,0.1289361 -0.555605,0.3187467 -1.109609,0.6402833 -1.664414,0.9604243 -0.583255,0.378575 -2.568603,1.534092 0.01427,0.03103 -1.071286,0.514609 -1.953371,1.121579 -2.881089,1.810048 -0.420844,0.30768 -0.817887,0.644514 -1.215668,0.980467 -0.427054,0.371614 -0.835814,0.763218 -1.256453,1.141895 -0.41732,0.333379 -0.818981,0.691619 -1.255456,0.999602 -0.363481,0.27049 -0.734793,0.528235 -1.120117,0.766865 -0.811015,0.474053 0.638323,-0.361364 0.952236,-0.550924 0.09663,-0.05835 -0.199911,0.104997 -0.301469,0.154289 -0.127937,0.06209 -0.256812,0.122322 -0.386887,0.179805 -0.412844,0.182446 -0.47929,0.199966 -0.910891,0.361593 -1.050152,0.397489 -2.134716,0.684919 -3.22995,0.925219 -1.164405,0.263769 -2.355127,0.385017 -3.54159,0.500456 -1.209206,0.124648 -2.421866,0.209384 -3.636373,0.258059 -0.887957,0.04475 -1.775064,0.02341 -2.662355,-0.01917 -0.802824,-0.05018 -1.602207,-0.138374 -2.391072,-0.296092 -0.691288,-0.137734 -1.375843,-0.30621 -2.064631,-0.455316 -0.367124,-0.0786 -0.735516,-0.150792 -1.103238,-0.226339 -0.401203,-0.08667 -0.808826,-0.14254 -1.215514,-0.196923 -0.491356,-0.03621 -0.981303,-0.08985 -1.472539,-0.128062 -0.477352,-0.03573 -0.95587,-0.04673 -1.434356,-0.05197 -0.358461,-0.0049 -0.716951,-0.0049 -1.075439,-0.0057 -0.331073,-0.0064 -0.660585,0.03628 -0.983978,0.103877 -0.144424,0.03043 -0.289793,0.05545 -0.434459,0.08465 0,0 -1.363045,1.044559 -1.363045,1.044559 v 0 c 0.142482,-0.04614 0.285914,-0.06874 0.433551,-0.09422 0.31658,-0.06748 0.635879,-0.139444 0.961958,-0.131666 0.361586,-0.0016 0.723176,-0.003 1.084764,-0.0031 0.477735,0.0034 0.955727,0.0088 1.43265,0.03933 0.487692,0.03565 0.972759,0.09667 1.460832,0.126463 0.401571,0.04555 0.801532,0.105754 1.196973,0.189466 0.369918,0.08983 0.751707,0.135148 1.123777,0.216221 0.697757,0.133281 1.387835,0.303437 2.084802,0.440892 0.793489,0.167616 1.596153,0.268689 2.406011,0.317517 0.892845,0.03951 1.785909,0.07352 2.679406,0.02486 1.227504,-0.0538 2.451496,-0.160513 3.674587,-0.276029 1.182059,-0.103252 2.370107,-0.20559 3.529919,-0.46649 1.095813,-0.239995 2.184812,-0.512473 3.238247,-0.903708 1.276424,-0.453666 2.378074,-0.995488 3.527011,-1.774469 0.385098,-0.246293 0.758755,-0.508663 1.124516,-0.782881 0.417978,-0.328323 0.834055,-0.659822 1.234797,-1.009149 0.419141,-0.384755 0.836313,-0.772003 1.269465,-1.141072 0.390635,-0.333997 0.790876,-0.656786 1.203375,-0.963513 0.263292,-0.19532 0.524998,-0.391485 0.799681,-0.570748 0.08101,-0.05287 0.329937,-0.201955 0.245441,-0.154856 -0.351243,0.195782 -1.835103,1.045185 -1.046201,0.600647 0.970639,-0.557824 1.938097,-1.114189 2.888616,-1.704183 -0.412525,0.237166 -0.825908,0.472839 -1.237568,0.711497 -0.07802,0.04523 0.158268,-0.08651 0.236596,-0.131188 0.801844,-0.457412 1.628093,-0.8911294 2.391919,-1.4148119 0.683381,-0.4819307 1.35783,-0.9779956 2.071093,-1.4156308 -0.328012,0.1856484 -0.659482,0.3653182 -0.98404,0.5569451 -0.145977,0.086188 0.29874,-0.1603385 0.448106,-0.2405149 0.39816,-0.2137247 0.799266,-0.4209551 1.199814,-0.6300938 0.07111,-0.037124 0.141707,-0.075236 0.212559,-0.1128497 0,0 1.342245,-1.0736691 1.342245,-1.0736691 z"
       id="path952"
       style="opacity:0.989;fill:#fbbf00;fill-opacity:1;stroke:#fbbf00;stroke-width:0.555997;stroke-linejoin:bevel;stroke-miterlimit:4;stroke-dasharray:none;stroke-opacity:1" />
    <path
       d="m 55.925078,5.2025907 c -0.575292,0.5675599 -1.15566,1.1286761 -1.763539,1.6617082 -0.711075,0.6489127 -1.489429,1.2135756 -2.275762,1.7660576 -0.149734,0.099685 -0.298936,0.2001897 -0.449207,0.2990708 -0.387197,0.2547895 -0.528689,0.3476614 -0.924982,0.5826862 -0.151059,0.08959 -0.605577,0.3559433 -0.456387,0.2632755 0.291191,-0.1808737 0.606425,-0.3247768 0.882509,-0.5279623 0.166725,-0.1227018 -0.367959,0.1897855 -0.551938,0.2846776 -1.060235,0.5613987 -2.146839,1.0680097 -3.252512,1.5324847 -1.099299,0.474799 -2.243436,0.828335 -3.399864,1.132451 -1.157749,0.278857 -2.336034,0.440727 -3.522051,0.529911 -0.884497,0.07756 -1.770752,0.12601 -2.65815,0.151612 -0.791904,-0.0021 -1.582093,0.04443 -2.372725,0.08194 -0.606024,0.02817 -1.212693,0.03559 -1.819251,0.0416 -0.503348,0.0037 -1.0067,2.95e-4 -1.510049,-6.65e-4 -0.409715,-2.66e-4 -0.81943,-10e-4 -1.229143,-0.003 -0.313582,-0.01353 -0.624121,0.0099 -0.932539,0.06552 -0.04251,0.01042 -0.08501,0.0209 -0.127516,0.03135 0,0 -1.363121,1.045094 -1.363121,1.045094 v 0 c 0.04184,-0.01184 0.08369,-0.02358 0.125529,-0.03537 0.295832,-0.0878 0.607238,-0.110912 0.914766,-0.101935 0.41191,-0.0018 0.823827,-0.0023 1.235745,-0.0019 0.506415,-3.48e-4 1.012826,-0.0026 1.519237,-0.0043 0.612005,-0.0031 1.223939,-0.01615 1.835323,-0.04499 0.793203,-0.03782 1.585508,-0.09664 2.380146,-0.09183 0.893335,-0.02062 1.78557,-0.06647 2.675116,-0.154159 1.197456,-0.08798 2.385216,-0.252195 3.556943,-0.51943 1.157091,-0.294895 2.304522,-0.63483 3.403925,-1.10594 1.110109,-0.463838 2.204283,-0.963417 3.267325,-1.528297 1.485706,-0.7548048 2.934571,-1.5885922 4.311246,-2.5285375 0.784888,-0.5563425 1.558414,-1.1288099 2.266926,-1.7819245 0.618969,-0.5508118 1.20826,-1.1332225 1.826371,-1.6845106 0,0 -1.592371,0.6453046 -1.592371,0.6453046 z"
       id="path954"
       style="opacity:0.989;fill:#fbbf00;fill-opacity:1;stroke:#fbbf00;stroke-width:0.555997;stroke-linejoin:bevel;stroke-miterlimit:4;stroke-dasharray:none;stroke-opacity:1" />
    <path
       d="m 55.477794,3.560002 c -0.07596,0.034973 -0.153712,0.066303 -0.227886,0.10492 -0.625822,0.3258533 -1.228588,0.6979807 -1.841457,1.0469996 -0.827668,0.4713432 -0.700792,0.397006 -1.545434,0.8570781 -1.07219,0.5953202 -2.165587,1.1485912 -3.287369,1.6437288 -0.453552,0.2200467 -0.921857,0.34964 -1.421276,0.3945139 -0.779988,0.03392 -1.561602,0.032592 -2.341942,0.012302 -0.790686,-0.036049 -1.581859,-0.05995 -2.372888,-0.086956 0,0 -1.348945,0.9746266 -1.348945,0.9746266 v 0 c 0.7915,0.014946 1.582647,0.040581 2.373099,0.085058 0.775128,0.034062 1.551524,0.023242 2.327262,0.018502 0.165295,-0.0056 0.3244,-0.00571 0.488072,-0.029794 0.345564,-0.050885 0.667441,-0.2023229 0.98813,-0.3314608 1.146673,-0.5110145 2.266849,-1.0754315 3.363172,-1.6877402 0.753716,-0.4069943 1.500321,-0.8243017 2.244435,-1.2485807 0.07534,-0.042962 0.888173,-0.5097646 1.044964,-0.5920676 0.06701,-0.035171 0.137981,-0.062232 0.206974,-0.093343 0,0 1.351089,-1.0677894 1.351089,-1.0677894 z"
       id="path958"
       style="opacity:0.989;fill:#fbbf00;fill-opacity:1;stroke:#fbbf00;stroke-width:0.555997;stroke-linejoin:bevel;stroke-miterlimit:4;stroke-dasharray:none;stroke-opacity:1" />
    <path
       d="m 10.775294,21.539016 c 1.250494,-0.107992 2.508018,-0.120193 3.762465,-0.118326 2.044248,0.02448 4.086825,0.112144 6.130968,0.144355 2.278369,0.02015 4.551066,0.181347 6.821053,0.364137 1.270539,0.09986 2.532673,0.273688 3.793995,0.45175 0.86231,0.118637 1.726605,0.219898 2.584577,0.367538 0.724565,0.0961 1.431784,0.269588 2.127674,0.488483 0.851386,0.275959 1.638732,0.646746 2.383488,1.14185 0.523121,0.395432 1.078179,0.806507 1.472791,1.340277 0.06943,0.09391 0.12638,0.196437 0.189571,0.294658 0.510932,1.017622 0.307846,1.598218 -0.08586,2.617191 -0.47933,1.15967 -1.305296,2.084455 -2.183723,2.955956 -0.16626,0.142106 -0.328302,0.289305 -0.498786,0.426321 -0.336693,0.270599 -0.645021,0.483289 -1.006179,0.71824 -0.167743,0.109134 -0.682526,0.417972 -0.508612,0.318967 0.292219,-0.166359 0.60746,-0.303432 0.863731,-0.521128 0.158971,-0.135045 -0.37703,0.178551 -0.565546,0.267824 -1.010632,0.433791 -2.03969,0.822506 -3.054479,1.246515 -0.516291,0.218287 -1.039586,0.419994 -1.54825,0.655774 -0.244283,0.101672 -0.484054,0.211399 -0.719812,0.331129 -0.178627,0.09312 -0.362571,0.176224 -0.538142,0.275413 -3.569386,2.055407 -0.773565,0.44698 -0.214037,0.119282 0.03448,-0.02018 -0.07102,0.03672 -0.107323,0.05343 -0.138886,0.06397 -0.283136,0.112336 -0.427751,0.161285 -0.281148,0.112419 -0.563393,0.221937 -0.847118,0.327774 -0.125943,0.04776 -0.252294,0.09248 -0.380984,0.13217 0,0 -1.361036,1.045353 -1.361036,1.045353 v 0 c 0.131678,-0.03145 0.265293,-0.05942 0.386642,-0.122283 0.290243,-0.09231 0.572431,-0.21119 0.852117,-0.330789 0.175961,-0.06344 0.380959,-0.09849 0.545324,-0.190282 0.427983,-0.23901 3.502007,-2.008531 0.213623,-0.117321 0.178927,-0.09098 0.355545,-0.185502 0.529328,-0.284091 0.250641,-0.0983 0.474066,-0.25705 0.733412,-0.338627 0.52142,-0.244185 1.049811,-0.470661 1.582201,-0.690501 1.020466,-0.435543 2.055522,-0.83479 3.080314,-1.259719 1.614262,-0.732856 3.171819,-1.651263 4.489135,-2.845235 0.371962,-0.375698 0.581204,-0.571149 0.91978,-0.975528 0.516947,-0.617415 0.937341,-1.307726 1.250092,-2.049702 0.194678,-0.526852 0.402129,-1.057046 0.393882,-1.630358 -0.0058,-0.404621 -0.176403,-0.783573 -0.343492,-1.141764 -0.06645,-0.105282 -0.12563,-0.215517 -0.19933,-0.315854 -0.397573,-0.541286 -0.991293,-0.961838 -1.515471,-1.367776 -0.744292,-0.502487 -1.540515,-0.895993 -2.388379,-1.19439 -0.101211,-0.03336 -0.507621,-0.169073 -0.615509,-0.197719 -0.505202,-0.134143 -1.024694,-0.212449 -1.539175,-0.299951 -0.85871,-0.155369 -1.724745,-0.248589 -2.588174,-0.37285 -1.290157,-0.171562 -2.586302,-0.293433 -3.883285,-0.400016 -2.278249,-0.168752 -4.559028,-0.313281 -6.843569,-0.358974 -2.031355,-0.04697 -4.061698,-0.122754 -6.092799,-0.174425 -1.224145,-0.01519 -2.448366,-0.004 -3.67213,0.03214 0,0 -1.377201,1.019798 -1.377201,1.019798 z"
       id="path964"
       style="opacity:0.989;fill:#fbbf00;fill-opacity:1;stroke:#fbbf00;stroke-width:0.555997;stroke-linejoin:bevel;stroke-miterlimit:4;stroke-dasharray:none;stroke-opacity:1" />
    <path
       d="m 36.524193,43.189231 c 0.494282,-0.453632 1.026441,-0.864474 1.547158,-1.287227 0.672121,-0.60111 1.442849,-1.094238 2.073411,-1.742362 0.141539,-0.145482 0.270621,-0.302586 0.405932,-0.453883 0.847451,-1.019582 1.556374,-2.146866 2.202129,-3.302243 0.510175,-0.959348 1.000531,-1.928667 1.513297,-2.886652 0.450459,-0.796588 0.848271,-1.621232 1.281748,-2.4269 0.333938,-0.598284 0.770623,-1.126309 1.254771,-1.60747 0.101749,-0.09193 0.199826,-0.188071 0.305244,-0.275759 0.226347,-0.188274 0.52545,-0.404326 0.774081,-0.560058 0.139372,-0.0873 0.565653,-0.33555 0.427288,-0.246655 -0.316272,0.203194 -0.669589,0.352595 -0.96128,0.589727 -0.135133,0.10986 0.32164,-0.133648 0.482463,-0.200469 1.193393,-0.445393 2.448295,-0.676846 3.70708,-0.839516 1.514042,-0.178807 3.033113,-0.309938 4.550856,-0.452535 2.547639,-0.265761 5.089051,-0.588573 7.615608,-1.010553 1.795553,-0.287612 3.53881,-0.795888 5.230219,-1.454677 1.304815,-0.529151 2.569751,-1.153017 3.813451,-1.811742 1.649325,-0.901109 3.220328,-1.931837 4.827749,-2.903042 0.797941,-0.47943 1.593069,-0.965595 2.347231,-1.512256 0.235917,-0.160004 0.442484,-0.354193 0.678564,-0.514073 0,0 -1.589903,0.628556 -1.589903,0.628556 v 0 c -0.221368,0.16883 -0.43232,0.351202 -0.662764,0.50804 -0.734028,0.525737 -1.499603,1.004314 -2.273319,1.469158 -0.639052,0.387405 -1.276953,0.775902 -1.909773,1.173428 -0.178671,0.112239 -0.727304,0.42554 -0.53564,0.337306 0.31008,-0.142751 0.592353,-0.3396 0.892763,-0.501716 0.170433,-0.09197 -0.335153,0.194157 -0.502731,0.291235 -1.244756,0.672035 -2.514051,1.30266 -3.822246,1.842481 -1.703687,0.682944 -3.459364,1.22024 -5.272547,1.528066 -2.507831,0.441284 -5.032816,0.776207 -7.570454,0.992622 -1.50548,0.125289 -3.011834,0.243889 -4.512769,0.41697 -1.259592,0.1534 -2.51282,0.378443 -3.71586,0.793182 -1.123217,0.436061 -0.453823,0.151071 -2.359464,1.224052 -0.549256,0.309258 -1.05905,0.688841 -1.509471,1.129768 -0.48001,0.49709 -0.917068,1.035008 -1.235023,1.652544 -0.415477,0.809301 -0.819644,1.624616 -1.264857,2.418301 -0.506169,0.954558 -0.981569,1.924814 -1.496114,2.874978 -0.646894,1.146982 -1.343564,2.274912 -2.21593,3.266782 -0.141275,0.14893 -0.277519,0.302795 -0.423821,0.446786 -0.644988,0.634791 -1.404395,1.140896 -2.084398,1.735324 -0.538264,0.433657 -1.075135,0.870321 -1.617314,1.298328 0,0 1.604635,-0.627846 1.604635,-0.627846 z"
       id="path966"
       style="opacity:0.989;fill:#fbbf00;fill-opacity:1;stroke:#fbbf00;stroke-width:0.555997;stroke-linejoin:bevel;stroke-miterlimit:4;stroke-dasharray:none;stroke-opacity:1" />
    <path
       d="m 39.506396,45.711473 c 0.499318,-0.397226 1.04735,-0.732717 1.592989,-1.061978 0.204727,-0.123542 0.821111,-0.490255 0.619219,-0.362137 -0.232006,0.147227 -0.47307,0.279661 -0.709602,0.419493 1.846089,-1.051629 3.722822,-2.057777 5.459369,-3.285626 1.203449,-0.862613 2.149875,-2.000272 3.109371,-3.112199 0.686453,-0.784938 1.403,-1.53744 2.205812,-2.203566 0.883101,-0.666204 1.787968,-1.302918 2.688046,-1.94582 0.535879,-0.360922 1.076129,-0.716629 1.628957,-1.051278 0.187328,-0.113399 0.751618,-0.449558 0.566827,-0.332068 -0.273821,0.174097 -0.611703,0.265625 -0.834039,0.501963 -0.161534,0.171705 0.427764,-0.198305 0.641646,-0.297458 1.389117,-0.600522 2.864572,-0.924862 4.348502,-1.182441 1.999715,-0.277196 3.985419,-0.635424 5.966528,-1.021587 1.968544,-0.392115 3.917154,-0.875138 5.851882,-1.407839 1.937734,-0.586051 3.837428,-1.289899 5.731055,-2.003545 1.568029,-0.546577 3.074324,-1.243344 4.562187,-1.975903 1.026179,-0.513285 2.034769,-1.060474 3.057372,-1.580856 0.142816,-0.07493 0.285632,-0.149867 0.428447,-0.224803 0,0 1.2891,-1.036492 1.2891,-1.036492 v 0 c -0.1455,0.07843 -0.291002,0.156836 -0.436498,0.235256 -1.031934,0.523105 -2.051168,1.069931 -3.079264,1.600315 -1.49576,0.747881 -3.010996,1.460277 -4.589914,2.017809 -1.890352,0.719427 -3.790613,1.416711 -5.723184,2.0155 -1.933405,0.541084 -3.884789,1.015625 -5.851056,1.422345 -1.969212,0.388297 -3.943635,0.74655 -5.934894,1.003631 -0.606369,0.0949 -0.960705,0.139799 -1.549642,0.270333 -0.955694,0.21182 -1.89313,0.507531 -2.804372,0.86355 -0.213056,0.09369 -0.433888,0.171388 -0.639172,0.281079 -1.424025,0.760893 -2.816071,1.586669 -4.146939,2.501237 -0.909847,0.645998 -1.826084,1.284646 -2.708189,1.968342 -0.787582,0.674932 -1.493056,1.431341 -2.169256,2.217256 -0.943329,1.1101 -1.897649,2.222186 -3.100547,3.064749 -0.633064,0.439976 -0.643054,0.459865 -1.301559,0.86542 -0.229045,0.141066 -0.531067,0.198737 -0.692987,0.413546 -0.154657,0.205171 0.883225,-0.524569 0.669355,-0.382191 -0.127382,0.08479 -1.25273,0.713244 -1.394094,0.792597 -1.469937,0.839984 -2.97952,1.640858 -4.346213,2.647576 0,0 1.594757,-0.63421 1.594757,-0.63421 z"
       id="path968"
       style="opacity:0.989;fill:#fbbf00;fill-opacity:1;stroke:#fbbf00;stroke-width:0.555997;stroke-linejoin:bevel;stroke-miterlimit:4;stroke-dasharray:none;stroke-opacity:1" />
    <path
       d="m 89.989679,24.276627 c -0.59498,0.30879 -1.204895,0.585032 -1.827716,0.832363 -1.107652,0.420794 -2.246227,0.75213 -3.381008,1.090292 -0.988776,0.288246 -1.972652,0.591712 -2.944384,0.933206 -1.003053,0.362686 -1.986608,0.776511 -2.962602,1.205976 -0.845879,0.387889 -1.663531,0.833465 -2.498002,1.244829 -0.885092,0.417466 -1.778307,0.816887 -2.67395,1.211002 -0.940786,0.42524 -1.903019,0.794425 -2.879434,1.128154 -0.888786,0.295668 -1.789848,0.554575 -2.665849,0.887263 -0.532186,0.215998 -1.037063,0.490785 -1.532109,0.780353 -1.941794,1.135806 -1.270441,0.692475 -2.304491,1.398886 -0.874771,0.586567 -1.686034,1.258811 -2.501057,1.923795 -0.664911,0.534938 -1.288992,1.114434 -1.863389,1.745131 -0.487642,0.515746 -0.987652,1.01955 -1.470368,1.539856 -0.361875,0.440232 -0.735314,0.870136 -1.122172,1.288539 -0.29005,0.331936 -0.59988,0.643984 -0.91555,0.951555 -0.303402,0.295579 -0.627097,0.571785 -0.974485,0.814357 -0.248357,0.174656 -0.512827,0.324699 -0.773876,0.479093 0,0 1.559822,-0.600873 1.559822,-0.600873 v 0 c 0.270219,-0.160749 0.543175,-0.318199 0.796922,-0.504725 0.341689,-0.256876 0.664941,-0.538215 0.968392,-0.839418 0.311048,-0.308679 0.61118,-0.627001 0.901289,-0.955494 0.379914,-0.42105 0.746459,-0.853336 1.115446,-1.28389 0.482165,-0.515017 0.972777,-1.021868 1.456846,-1.535075 0.577172,-0.617015 1.197935,-1.188634 1.857337,-1.717437 0.809017,-0.662642 1.620155,-1.325357 2.492849,-1.903908 0.857697,-0.566772 0.501162,-0.315143 -0.510489,0.241693 -0.13923,0.07663 0.273732,-0.161589 0.412053,-0.239842 0.307705,-0.174071 0.434762,-0.241121 0.74559,-0.389908 0.114762,-0.05495 0.230955,-0.106863 0.346433,-0.160294 0.876999,-0.352606 1.785503,-0.616838 2.683262,-0.91052 0.977924,-0.328566 1.944027,-0.684449 2.883402,-1.113349 0.895565,-0.389374 1.785125,-0.791346 2.67181,-1.200702 0.838714,-0.403132 1.652601,-0.855419 2.495389,-1.250329 0.975045,-0.435386 1.956462,-0.856739 2.961014,-1.220456 0.971575,-0.351293 1.960841,-0.648359 2.949412,-0.947743 1.1277,-0.340155 2.261261,-0.664633 3.369453,-1.065227 0.611542,-0.229067 1.207978,-0.491182 1.791965,-0.783483 0,0 1.342245,-1.07367 1.342245,-1.07367 z"
       id="path970"
       style="opacity:0.989;fill:#fbbf00;fill-opacity:1;stroke:#fbbf00;stroke-width:0.555997;stroke-linejoin:bevel;stroke-miterlimit:4;stroke-dasharray:none;stroke-opacity:1" />
    <path
       d="m 15.862748,27.827279 c 1.035837,-0.503359 2.137499,-0.85991 3.23267,-1.209599 1.007396,-0.33442 2.039205,-0.573153 3.093884,-0.68729 0.798032,-0.06695 1.599636,-0.06428 2.39981,-0.06294 0.976257,-0.02503 1.948733,0.05535 2.92128,0.12637 0.914025,0.09312 1.832774,0.173523 2.724056,0.404719 0.429189,0.116568 0.845117,0.300963 1.188637,0.589063 0.184704,0.154909 0.249567,0.255981 0.39737,0.442573 0.418457,0.644386 0.38189,1.408298 0.331563,2.14301 -0.08896,0.7843 -0.236068,1.561968 -0.511818,2.302611 -0.232614,0.525064 -0.609997,0.963954 -1.023828,1.354871 -0.457031,0.346151 -1.482773,0.966953 0.722253,-0.371992 0.118063,-0.07169 -0.242217,0.132891 -0.364835,0.196479 -0.340731,0.176703 -0.494425,0.244762 -0.847375,0.410999 -0.886361,0.427638 -1.813636,0.750689 -2.761397,1.009355 -0.418277,0.117968 -0.848942,0.174909 -1.277313,0.240822 0,0 -1.35245,1.017426 -1.35245,1.017426 v 0 c 0.435954,-0.07927 0.878798,-0.121675 1.306752,-0.242319 0.955067,-0.258448 1.893216,-0.57209 2.789532,-0.995647 1.165751,-0.533353 2.35847,-1.094513 3.350884,-1.912703 0.403871,-0.417272 0.778658,-0.874168 0.987861,-1.422977 0.248527,-0.754238 0.374462,-1.541754 0.463687,-2.329407 0.05239,-0.778381 0.08159,-1.585504 -0.364938,-2.265191 -0.156032,-0.197682 -0.2318,-0.312571 -0.425208,-0.479477 -0.3522,-0.303934 -0.781493,-0.510479 -1.225489,-0.638106 -0.906426,-0.255284 -1.84956,-0.290729 -2.781002,-0.401534 -0.963242,-0.08944 -1.928132,-0.183441 -2.896822,-0.160509 -0.805188,-9.49e-4 -1.611682,-0.01053 -2.415092,0.05282 -1.076273,0.103581 -2.12621,0.348854 -3.152791,0.689613 -1.070242,0.338306 -2.138473,0.688648 -3.174899,1.121558 0,0 -1.334982,1.077408 -1.334982,1.077408 z"
       id="path972"
       style="opacity:0.989;fill:#fbbf00;fill-opacity:1;stroke:#fbbf00;stroke-width:0.555997;stroke-linejoin:bevel;stroke-miterlimit:4;stroke-dasharray:none;stroke-opacity:1" />
    <path
       d="m 15.461878,28.141435 c -0.06821,0.09783 -0.141837,0.19186 -0.211104,0.289094 -0.04787,0.06512 -0.0723,0.138525 -0.08206,0.217741 -0.0076,0.08862 0.04289,0.169908 0.07101,0.251757 0.04268,0.126797 0.07639,0.256349 0.118122,0.383489 0.08249,0.241737 0.182276,0.47672 0.294147,0.70618 0.125943,0.256701 0.289522,0.48965 0.463833,0.715054 0.152795,0.197896 0.313274,0.389626 0.474626,0.580543 0.164051,0.18423 0.32683,0.369456 0.483678,0.559889 0.173483,0.205748 0.336888,0.419564 0.505093,0.62957 0.156977,0.214912 0.339603,0.407808 0.519158,0.60341 0.228719,0.246268 0.46083,0.489211 0.695577,0.729714 0.212486,0.20726 0.434991,0.40386 0.658813,0.598702 0.176773,0.161199 0.354192,0.321679 0.531597,0.482182 0.182452,0.169644 0.366475,0.336756 0.565509,0.486753 0.204215,0.164519 0.428895,0.297359 0.660291,0.419133 0.242093,0.127499 0.488667,0.244398 0.742847,0.345535 0.277033,0.100596 0.562273,0.175368 0.851174,0.232338 0.311299,0.05374 0.62685,0.06961 0.942187,0.0646 0.179482,-0.01199 0.361196,-0.01657 0.53777,-0.05445 0.09999,-0.02145 0.125411,-0.03362 0.223558,-0.06743 0.161733,-0.05734 0.317636,-0.129489 0.480344,-0.184083 0.115026,-0.03475 0.230159,-0.06925 0.345839,-0.10176 0.01148,-0.0031 0.02291,-0.0061 0.03437,-0.0092 0,0 0.339737,-0.261525 0.339737,-0.261525 v 0 c -0.01196,0.0036 -0.02391,0.0071 -0.03588,0.01075 -0.117058,0.03167 -0.232268,0.0698 -0.349176,0.102089 -0.16738,0.05147 -0.324453,0.129243 -0.488844,0.189022 -0.09302,0.03431 -0.123985,0.0488 -0.219304,0.07223 -0.176655,0.04346 -0.359645,0.05013 -0.540151,0.06473 -0.311922,0.0085 -0.624214,-0.0068 -0.932008,-0.06139 -0.288485,-0.05221 -0.574615,-0.121242 -0.849721,-0.223788 -0.252595,-0.100409 -0.497243,-0.218011 -0.738446,-0.343289 -0.229802,-0.120378 -0.453167,-0.251607 -0.656956,-0.413271 -0.197442,-0.149642 -0.379032,-0.3178 -0.562127,-0.484487 C 20.15828,34.509795 19.982754,34.346635 19.80231,34.188882 19.578222,33.995171 19.351834,33.80357 19.140143,33.596174 18.905331,33.356835 18.671719,33.11605 18.448333,32.865936 18.271524,32.669295 18.09087,32.47586 17.93252,32.263559 17.764809,32.052937 17.599551,31.840338 17.426648,31.633903 17.271065,31.442218 17.111549,31.254246 16.945106,31.071851 16.783253,30.8819 16.623767,30.68984 16.468011,30.494857 c -0.173508,-0.222224 -0.333742,-0.454522 -0.459708,-0.707559 -0.110386,-0.228511 -0.207395,-0.463044 -0.282419,-0.705746 -0.03881,-0.128845 -0.06988,-0.259998 -0.113387,-0.387393 -0.02629,-0.07605 -0.07081,-0.152701 -0.05801,-0.235382 0.01293,-0.07275 0.04209,-0.138329 0.08659,-0.197776 0.06922,-0.09827 0.142072,-0.193898 0.216928,-0.287945 0,0 -0.396132,0.168307 -0.396132,0.168307 z"
       id="path1012"
       style="opacity:0.989;fill:#ffa92f;fill-opacity:1;stroke:#ffa92f;stroke-width:0.316857;stroke-linejoin:bevel;stroke-miterlimit:4;stroke-dasharray:none;stroke-opacity:1" />
    <path
       d="m 8.7753055,26.240048 c 0.018633,0.03066 0.038792,0.06041 0.055878,0.09194 0.1541351,0.284282 0.2830239,0.582113 0.4293456,0.870349 0.024603,0.04848 0.4909259,0.938272 0.5026579,0.96067 0.445676,0.8802 0.926022,1.737943 1.466561,2.563216 0.466678,0.685984 0.970256,1.346795 1.515516,1.972093 0.407386,0.483446 0.887704,0.895334 1.372546,1.29781 0.56437,0.464801 1.179178,0.860971 1.791992,1.257456 0.788409,0.511777 1.595775,0.9954 2.421481,1.444531 0.606356,0.310913 1.226444,0.594139 1.851445,0.865253 0.508462,0.224784 1.043093,0.36943 1.584551,0.487613 0.641295,0.123852 1.294563,0.151714 1.945991,0.154305 0.462635,0.0066 0.913472,-0.07186 1.350027,-0.219935 0.283143,-0.111486 0.562293,-0.232426 0.845818,-0.342959 0.1925,-0.07145 0.392983,-0.11829 0.592114,-0.167184 0.02149,-0.0057 0.043,-0.01148 0.06449,-0.01718 0,0 0.678311,-0.526469 0.678311,-0.526469 v 0 c -0.02057,0.008 -0.04114,0.01617 -0.06172,0.02424 -0.204147,0.04641 -0.406753,0.102089 -0.606681,0.163871 -0.288058,0.109453 -0.570496,0.231826 -0.854117,0.352186 -0.433179,0.161439 -0.883737,0.249963 -1.347626,0.253161 -0.647514,0.0064 -1.296717,-0.01782 -1.934385,-0.140847 C 21.902561,37.468539 21.37283,37.325699 20.867239,37.10711 20.23627,36.841092 19.605125,36.573852 18.993496,36.265157 18.16435,35.825543 17.361015,35.339486 16.574554,34.82753 15.974584,34.423149 15.37045,34.022272 14.810488,33.562797 14.328291,33.162146 13.846038,32.757618 13.435412,32.281163 12.883128,31.665885 12.376068,31.011763 11.91368,30.32612 11.374034,29.505087 10.874338,28.659101 10.43204,27.781175 10.239519,27.399352 10.131258,27.192731 9.9535939,26.810153 9.8155815,26.512958 9.6994156,26.208114 9.5692538,25.907852 c -0.014463,-0.03337 -0.032351,-0.06515 -0.048537,-0.09773 0,0 -0.745407,0.429919 -0.745407,0.429919 z"
       id="path1014"
       style="opacity:0.989;fill:#ffa92f;fill-opacity:1;stroke:#ffa92f;stroke-width:0.316857;stroke-linejoin:bevel;stroke-miterlimit:4;stroke-dasharray:none;stroke-opacity:1" />
    <path
       d="m 10.144961,38.494648 c 0.861903,-0.02703 1.720797,0.09288 2.571147,0.219328 1.103873,0.178662 2.153108,0.548162 3.184195,0.96827 1.168568,0.486793 2.3035,1.04671 3.440746,1.600932 0.728685,0.361098 1.463666,0.718785 2.139213,1.173939 0.498476,0.360093 0.971273,0.750635 1.403922,1.187667 0.391233,0.414009 0.781656,0.828534 1.204375,1.21075 0.448511,0.393034 0.933631,0.736233 1.429574,1.065533 0.351976,0.233137 0.722077,0.437204 1.117046,0.586568 0.357585,0.134277 0.723438,0.241191 1.100312,0.303326 0.304784,0.04166 0.613594,0.03902 0.920606,0.0393 0.320616,6.33e-4 0.641222,-0.0019 0.961834,-0.0025 0.33141,0.0068 0.661155,6.33e-4 0.991281,-0.02923 0.389225,-0.03784 0.761251,-0.15513 1.127015,-0.287317 0.873129,-0.327444 1.664794,-0.839121 2.429697,-1.367874 0.283644,-0.146273 0.511005,-0.368247 0.761589,-0.558832 0.200314,-0.149033 0.343448,-0.358073 0.461447,-0.575074 0.05698,-0.112825 0.08352,-0.234892 0.109156,-0.357414 0,0 -1.55139,0.74291 -1.55139,0.74291 v 0 c -0.03245,0.108344 -0.06668,0.215159 -0.129506,0.310775 -0.13364,0.19982 -0.286356,0.380308 -0.484813,0.519663 -0.235496,0.201219 -0.491058,0.374543 -0.752334,0.540765 -0.05795,0.03934 -0.115348,0.0795 -0.173858,0.118004 -0.861647,0.566873 1.852499,-0.987295 0.982266,-0.560512 -0.04878,0.02391 -0.09724,0.04858 -0.147113,0.0701 -0.05307,0.02291 -0.107674,0.04205 -0.161512,0.06308 -0.354352,0.147522 -0.721017,0.265151 -1.100802,0.326419 -0.325313,0.03273 -0.649212,0.04693 -0.976415,0.03811 -0.320438,6.32e-4 -0.640879,6.32e-4 -0.961315,0.0025 -0.301649,-2.21e-4 -0.604008,0.0042 -0.904863,-0.02145 -0.373872,-0.04286 -0.739107,-0.131398 -1.090784,-0.267025 -0.389524,-0.13271 -0.749736,-0.338167 -1.102045,-0.54888 -0.493626,-0.318647 -0.98034,-0.647537 -1.417124,-1.043134 -0.423704,-0.376472 -0.813432,-0.788122 -1.202515,-1.199788 -0.439691,-0.446568 -0.919132,-0.846129 -1.427807,-1.212259 -0.686421,-0.46238 -1.436451,-0.817441 -2.180804,-1.175779 -1.14972,-0.542995 -2.299001,-1.086305 -3.465084,-1.593974 -1.027551,-0.451696 -2.078665,-0.831595 -3.191735,-1.012546 -0.834766,-0.129207 -1.674007,-0.256723 -2.519173,-0.287647 0,0 -1.39443,1.013112 -1.39443,1.013112 z"
       id="path1016"
       style="opacity:0.989;fill:#ffa92f;fill-opacity:1;stroke:#ffa92f;stroke-width:0.316857;stroke-linejoin:bevel;stroke-miterlimit:4;stroke-dasharray:none;stroke-opacity:1" />
    <path
       d="m 9.6836869,43.030416 c 1.0407701,0.210518 2.0716501,0.467172 3.0876761,0.775383 1.270311,0.387125 2.474337,0.947456 3.666158,1.525652 1.246858,0.587954 2.449657,1.260681 3.665061,1.909236 1.015236,0.581268 2.072721,1.078517 3.153436,1.523979 0.849973,0.345449 1.74862,0.54357 2.638078,0.757139 0.885935,0.236897 1.780109,0.402768 2.69281,0.486588 0.832616,0.07448 1.6674,0.08296 2.501965,0.0497 0.627434,-0.02866 1.246663,-0.129002 1.857416,-0.271058 0.554766,-0.125105 1.071419,-0.357164 1.585015,-0.593961 0.998547,-0.447571 1.926675,-1.031474 2.870102,-1.581445 0.369543,-0.203101 0.681629,-0.487003 1.018558,-0.735563 0.174828,-0.169456 0.386484,-0.301065 0.545537,-0.485959 0.02532,-0.02157 0.05062,-0.04315 0.07594,-0.06472 0,0 -1.594544,0.652754 -1.594544,0.652754 v 0 c -0.02411,0.02391 -0.04821,0.04782 -0.07232,0.07172 -0.179343,0.155332 -0.357643,0.311916 -0.543334,0.459753 -0.323882,0.256855 -0.652259,0.507725 -1.011693,0.714141 2.590665,-1.482213 0.680326,-0.357921 0.03746,-0.08484 -0.510534,0.238609 -1.016537,0.488237 -1.567473,0.62281 -0.609234,0.151847 -1.227666,0.266097 -1.854957,0.309616 -0.832811,0.03974 -1.665936,0.03727 -2.497996,-0.02544 C 29.029098,48.968351 28.137763,48.8153 27.257085,48.579289 26.372492,48.371424 25.482314,48.163748 24.630194,47.8445 23.541098,47.416095 22.475943,46.93193 21.456069,46.355511 20.241535,45.70334 19.037342,45.032062 17.791713,44.43961 16.60156,43.839196 15.381101,43.29595 14.107764,42.894726 c -0.993731,-0.312567 -2.003603,-0.565627 -3.007773,-0.841234 0,0 -1.41631,0.976911 -1.41631,0.976911 z"
       id="path1018"
       style="opacity:0.989;fill:#ffa92f;fill-opacity:1;stroke:#ffa92f;stroke-width:0.316857;stroke-linejoin:bevel;stroke-miterlimit:4;stroke-dasharray:none;stroke-opacity:1" />
    <path
       d="m 9.4782672,49.253806 c 1.3387728,0.861481 2.7151218,1.66282 4.0766148,2.487507 1.199255,0.749981 2.399558,1.5016 3.548116,2.328373 0.195903,0.141017 1.357412,1.013269 1.555434,1.161729 1.139152,0.790149 2.277865,1.653955 3.588606,2.145655 0.208869,0.07835 0.425237,0.135042 0.637856,0.202563 1.665575,0.414375 3.353349,0.01243 5.00199,-0.287818 1.623211,-0.320056 3.243533,-0.647784 4.894935,-0.775887 1.293892,-0.03406 2.503766,0.412255 3.664455,0.934972 1.070276,0.52711 1.994016,1.282476 2.863518,2.088524 0.664962,0.627851 1.28263,1.302718 1.90096,1.975788 0.303111,0.331094 0.15569,0.169439 0.442357,0.484886 0,0 1.440589,-0.87523 1.440589,-0.87523 v 0 c -0.29381,-0.311239 -0.143229,-0.151224 -0.451661,-0.480118 -0.634398,-0.667217 -1.262734,-1.341603 -1.939107,-1.967 -0.886983,-0.810616 -1.811386,-1.590191 -2.893844,-2.130894 -1.178124,-0.538778 -2.411617,-0.991648 -3.725327,-0.992151 -1.678017,0.127186 -3.304189,0.461864 -4.950871,0.797096 -1.165428,0.212085 -2.382046,0.489263 -3.572707,0.474148 -0.57353,-0.0072 -0.777396,-0.0647 -1.334428,-0.161025 -0.587849,-0.172467 -0.712134,-0.186507 -1.278736,-0.446008 -1.05732,-0.48425 -2.017585,-1.156244 -2.961692,-1.827039 -0.150867,-0.112455 -1.418818,-1.058714 -1.564353,-1.162729 -1.156263,-0.826385 -2.369456,-1.568523 -3.572915,-2.322887 -1.327499,-0.821782 -2.682941,-1.618054 -3.918567,-2.575077 0,0 -1.4512228,0.922622 -1.4512228,0.922622 z"
       id="path1028"
       style="opacity:0.989;fill:#ffa92f;fill-opacity:1;stroke:#ffa92f;stroke-width:0.316857;stroke-linejoin:bevel;stroke-miterlimit:4;stroke-dasharray:none;stroke-opacity:1" />
    <path
       d="m 9.9880372,56.977156 c 1.6367418,0.425977 3.0011628,1.461276 4.3291468,2.461121 1.599115,1.216033 2.944739,2.706408 4.307584,4.170337 0.700219,0.772838 1.47355,1.476832 2.275693,2.141989 0.473357,0.392518 0.915028,0.744561 1.444745,1.057888 0.249254,0.147433 0.513984,0.266982 0.770977,0.400478 0.276353,0.10898 0.545168,0.239436 0.82906,0.326917 0.580424,0.178852 1.522384,0.342928 2.115528,0.442548 0.963388,0.161802 1.932837,0.28981 2.899914,0.427136 1.269816,0.168384 2.534917,0.359374 3.78605,0.635591 0.761132,0.152956 1.456631,0.484272 2.139452,0.840914 0.786585,0.43019 1.554595,0.897901 2.298349,1.398688 0.552369,0.351609 1.093247,0.720425 1.633521,1.090168 0.494839,0.320278 0.967238,0.673136 1.446897,1.015359 0.336282,0.225853 0.669116,0.459371 1.024986,0.653718 0.165447,0.08875 0.344868,0.135174 0.527741,0.169921 0,0 1.40574,-0.989424 1.40574,-0.989424 v 0 C 43.05105,73.201433 42.880336,73.173856 42.721007,73.100849 42.359376,72.926173 42.034796,72.686621 41.693031,72.47718 41.207924,72.139008 40.73574,71.782349 40.237204,71.464015 39.692488,71.096694 39.158838,70.71255 38.591119,70.380571 37.839642,69.879865 37.060738,69.419338 36.275882,68.973308 35.587884,68.595424 34.890821,68.233989 34.10936,68.094114 32.833427,67.833088 31.545341,67.648757 30.252564,67.493405 29.27745,67.36638 28.299292,67.250427 27.328713,67.091329 c -0.634749,-0.104053 -1.448391,-0.246792 -2.06786,-0.438421 -0.278855,-0.08626 -0.544565,-0.210374 -0.816851,-0.315564 -0.253889,-0.128827 -0.514627,-0.244973 -0.76167,-0.386485 -0.53786,-0.308097 -0.974182,-0.637621 -1.457767,-1.026359 -0.808333,-0.649788 -1.570114,-1.356047 -2.264047,-2.127523 -0.665711,-0.720709 -1.315599,-1.459059 -2.014182,-2.148563 -0.538363,-0.531367 -0.901767,-0.853411 -1.483081,-1.34471 -0.276815,-0.233951 -0.559531,-0.460829 -0.839296,-0.691245 -1.317065,-0.999892 -2.646781,-2.042923 -4.225275,-2.597209 0,0 -1.4106468,0.961906 -1.4106468,0.961906 z"
       id="path1030"
       style="opacity:0.989;fill:#ffa92f;fill-opacity:1;stroke:#ffa92f;stroke-width:0.316857;stroke-linejoin:bevel;stroke-miterlimit:4;stroke-dasharray:none;stroke-opacity:1" />
    <path
       d="m 11.995197,67.860926 c 1.148875,0.171217 2.269234,0.495582 3.386501,0.806128 1.466137,0.411106 2.864509,1.015697 4.282389,1.562257 1.440667,0.572952 2.931715,1.002768 4.414544,1.44989 1.297412,0.380088 2.545065,0.893317 3.726111,1.548999 1.023524,0.598039 1.986492,1.291571 2.920068,2.020187 0.672509,0.512236 1.304671,1.073515 1.94407,1.625625 0.621993,0.554659 1.234367,1.119147 1.863775,1.665578 0.568488,0.493851 1.158398,0.961549 1.750322,1.426666 0.451464,0.412717 0.968655,0.726149 1.507831,1.007941 0.394697,0.197746 0.796345,0.383928 1.204324,0.552866 0.231306,0.08464 0.476224,0.124948 0.71725,0.17271 0.258473,0.04721 0.521027,0.0619 0.783127,0.07078 0.237644,-0.01124 0.469609,0.02777 0.703045,0.06461 0.232335,0.03656 0.467427,0.04672 0.702167,0.05286 0.0388,6.32e-4 0.07758,0.0013 0.116388,0.0019 0,0 1.392863,-1.009604 1.392863,-1.009604 v 0 c -0.03853,-2.44e-4 -0.07704,-6.33e-4 -0.115565,-6.33e-4 -0.230186,-0.0029 -0.460896,-0.0067 -0.689671,-0.03486 -0.238762,-0.0328 -0.473267,-0.09738 -0.716051,-0.08104 -0.256648,-0.0041 -0.513975,-0.01086 -0.768335,-0.04844 -0.235717,-0.03927 -0.468496,-0.0948 -0.701839,-0.144545 -0.41554,-0.14727 -0.819801,-0.33131 -1.216691,-0.522069 -0.532764,-0.273246 -1.04822,-0.575218 -1.496562,-0.976975 -0.589032,-0.467901 -1.192409,-0.917987 -1.762366,-1.409693 -0.626931,-0.547794 -1.23678,-1.112621 -1.849007,-1.676625 -0.649935,-0.549762 -1.296892,-1.103805 -1.979513,-1.613214 -0.948514,-0.723407 -1.910614,-1.435234 -2.944405,-2.033689 -1.197591,-0.66655 -2.447188,-1.184213 -3.765427,-1.565061 -1.481469,-0.436985 -2.967354,-0.867954 -4.402904,-1.442632 -1.423813,-0.548406 -2.831084,-1.145816 -4.300261,-1.567149 -1.090547,-0.324431 -2.186648,-0.640336 -3.298469,-0.88359 0,0 -1.407709,0.980902 -1.407709,0.980902 z"
       id="path1034"
       style="opacity:0.989;fill:#ffa92f;fill-opacity:1;stroke:#ffa92f;stroke-width:0.316857;stroke-linejoin:bevel;stroke-miterlimit:4;stroke-dasharray:none;stroke-opacity:1" />
    <path
       d="m 21.782899,76.81791 c 0.04598,0.01529 0.09271,0.02844 0.137909,0.04585 0.29575,0.11389 0.577862,0.265436 0.854674,0.418386 0.530553,0.293163 0.529663,0.301487 1.076476,0.635917 1.123284,0.698314 2.16473,1.516078 3.251732,2.267238 0.218539,0.151018 0.44071,0.296712 0.661064,0.445067 1.056335,0.698524 2.111542,1.398955 3.174723,2.08704 0.889934,0.56463 1.76119,1.157673 2.628063,1.756879 0.627479,0.432924 1.244056,0.88133 1.868729,1.318214 0.529384,0.364461 1.06587,0.718562 1.603387,1.070887 0.474551,0.302615 0.954553,0.596558 1.432333,0.894042 0.401629,0.258364 0.796469,0.527059 1.190233,0.797192 0.315393,0.215164 0.613737,0.453918 0.911901,0.692004 0.287641,0.231139 0.550859,0.488505 0.809588,0.750873 0.222597,0.222111 0.430519,0.458533 0.656729,0.677055 0.08597,0.08703 0.172791,0.173043 0.260483,0.258275 0.06642,0.05926 0.134972,0.116174 0.206434,0.169259 0.06647,0.05642 0.131334,0.111008 0.206318,0.155877 0,0 0.511644,-0.330369 0.511644,-0.330369 v 0 c -0.03208,-0.02008 -0.06693,-0.03449 -0.09703,-0.05764 -0.03926,-0.03018 -0.02979,-0.02872 -0.06921,-0.06256 -0.0124,-0.01064 -0.02581,-0.02009 -0.0387,-0.03012 -0.06961,-0.05168 -0.135697,-0.107082 -0.202231,-0.162691 -0.08916,-0.08535 -0.179689,-0.169442 -0.269657,-0.254082 -0.235947,-0.208858 -0.448693,-0.441962 -0.670864,-0.665021 -0.09477,-0.0971 -0.186856,-0.196795 -0.282706,-0.292811 -0.165897,-0.166179 -0.349815,-0.312786 -0.526829,-0.466601 -0.301034,-0.237111 -0.600323,-0.477488 -0.916736,-0.693984 -0.398289,-0.268573 -0.802116,-0.528888 -1.204948,-0.790559 -0.477632,-0.296154 -0.954697,-0.593392 -1.428567,-0.895488 -0.544979,-0.342358 -1.086192,-0.69145 -1.611974,-1.0628 -0.279328,-0.194474 -0.556845,-0.391651 -0.837116,-0.58476 -0.474173,-0.326712 -0.160031,-0.106523 -0.666521,-0.44747 -0.131707,-0.08866 -0.262298,-0.178974 -0.393447,-0.268461 -0.872612,-0.591942 -1.736238,-1.197744 -2.630295,-1.757383 -1.075297,-0.680552 -2.147028,-1.366905 -3.21396,-2.060472 -0.585277,-0.394929 -0.732217,-0.488891 -1.306715,-0.897182 -0.861036,-0.61193 -1.701665,-1.253337 -2.588766,-1.828026 -0.644876,-0.418217 -1.284405,-0.858074 -1.988783,-1.172185 0,0 -0.497363,0.340622 -0.497363,0.340622 z"
       id="path1036"
       style="opacity:0.989;fill:#ffa92f;fill-opacity:1;stroke:#ffa92f;stroke-width:0.316857;stroke-linejoin:bevel;stroke-miterlimit:4;stroke-dasharray:none;stroke-opacity:1" />
    <path
       d="m 41.730598,81.863383 c 0.239471,-0.03207 0.482173,-0.03394 0.723466,-0.03784 0.124977,-0.0013 0.06562,-9.49e-4 0.178079,-0.0013 0,0 0.237083,-0.172833 0.237083,-0.172833 v 0 c -0.116125,0.0031 -0.05494,0.0015 -0.183559,0.0052 -0.237792,0.0075 -0.475802,0.01255 -0.713352,0.02518 0,0 -0.241717,0.181793 -0.241717,0.181793 z"
       id="path1056"
       style="opacity:0.989;fill:#ffa92f;fill-opacity:1;stroke:#ffa92f;stroke-width:0.316857;stroke-linejoin:bevel;stroke-miterlimit:4;stroke-dasharray:none;stroke-opacity:1" />
  </g>
  <g
     style="display:inline"
     inkscape:label="Layer 3"
     id="layer3"
     inkscape:groupmode="layer">
    <path
       id="path866"
       d="M 8.217386,21.810172 42.51954,49.875569 91.75708,25.092672 42.683665,49.875569 43.340163,97.307732"
       style="fill:none;fill-opacity:1;stroke:#ffdd75;stroke-width:0.914706;stroke-linecap:butt;stroke-linejoin:miter;stroke-miterlimit:4;stroke-dasharray:none;stroke-opacity:1" />
  </g>
  <g
     style="display:inline"
     inkscape:label="Layer 2"
     id="layer2"
     inkscape:groupmode="layer">
    <path
       sodipodi:nodetypes="ccccccc"
       id="path41"
       d="M 11.499888,66.78046 43.340165,97.307734 87.818079,71.540088 91.75708,25.092672 53.844176,1.7869037 8.217386,21.810172 Z"
       style="fill:none;stroke:#000000;stroke-width:2.4691;stroke-linecap:butt;stroke-linejoin:miter;stroke-miterlimit:4;stroke-dasharray:none;stroke-opacity:1" />
  </g>
</svg>
